<?xml version="1.0" encoding="UTF-8"?>
<svg version="1.1" viewBox="0 0 963 154" xml:space="preserve" xmlns="http://www.w3.org/2000/svg">
    <g transform="matrix(1.33 0 0 -1.33 -82.4 716)">
        <path fill="white" opacity=0 stroke="none" fill-rule="evenodd" d="m751 455c-5.91-2.18-11.7-6.22-17.3-12.1-5.59-5.89-8.39-10.6-8.39-14.3 0-0.48 0.05-0.71 0.14-0.71 3.02 0 11.5 9.03 25.5 27.1zm-262 21.7-0.75-0.8c-5.01-5.37-7.51-9.75-7.51-13.2 0-0.97 0.43-1.45 1.29-1.45 2.31 0 6.06 2.62 11.3 7.85-2.96 0.56-4.44 2.67-4.44 6.33 0 0.48 0.04 0.84 0.11 1.09zm99.7 0-0.75-0.8c-5.01-5.37-7.51-9.75-7.51-13.2 0-0.97 0.43-1.45 1.29-1.45 2.31 0 6.06 2.62 11.3 7.85-2.96 0.56-4.44 2.67-4.44 6.33 0 0.48 0.04 0.84 0.11 1.09zm-366 5.71c-2.13 0-5.89-2.81-11.3-8.43-5.39-5.61-8.09-9.58-8.09-11.9 0-0.02-0.02-0.03-0.07-0.03 1.7 0 5.42 2.89 11.2 8.68 5.74 5.78 8.62 9.53 8.63 11.2 0 0.3-0.12 0.45-0.35 0.45zm377 0.86c-1.36 0-2.81-0.96-4.36-2.89-1.55-1.94-2.33-3.66-2.33-5.19 0-1.4 0.68-2.28 2.03-2.63 0.97 0.99 2.03 2.38 3.17 4.19 1.44 2.49 2.16 4.35 2.16 5.59 0 0.62-0.22 0.93-0.67 0.93zm-99.7 0c-1.36 0-2.81-0.96-4.36-2.89-1.55-1.94-2.33-3.66-2.33-5.19 0-1.4 0.68-2.28 2.03-2.63 0.97 0.99 2.03 2.38 3.17 4.19 1.44 2.49 2.16 4.35 2.16 5.59 0 0.62-0.22 0.93-0.67 0.93zm229 0.81c-1.95 0-4.69-1.63-8.2-4.89-3.62-4.47-5.92-7.5-6.9-9.1 2.09 1.47 4.9 3.54 8.44 6.21 4.49 3.35 6.74 5.87 6.74 7.59 0 0.12-0.03 0.19-0.08 0.19zm-433 0c-1.95 0-4.69-1.63-8.2-4.89-3.62-4.47-5.92-7.5-6.9-9.1 2.09 1.47 4.9 3.54 8.44 6.21 4.49 3.35 6.74 5.87 6.74 7.59 0 0.12-0.03 0.19-0.08 0.19zm56.6 0.55-0.02-0.01c-0.91-0.45-2.22-1.86-3.92-4.24-1.83-2.57-2.86-4.53-3.09-5.88l-0.03-0.32 0.36 0.43c3.91 4.67 6.12 7.92 6.64 9.76zm149 2.67c3.14 0 4.71-1.64 4.71-4.92 0-4.09-3.16-9.55-9.48-16.4-6.43-6.9-11.7-10.4-15.9-10.4-4.3 0-6.45 2.24-6.45 6.71 0 2.16 1.14 4.88 3.43 8.15l-9.24-8.15c-5.65-3.93-9.97-5.9-13-5.9-1.14 0-1.71 0.57-1.71 1.72 0 1.26 0.6 2.01 1.79 2.25 2.11 0.38 4.09 1.02 5.94 1.9 2.15 1.32 6.2 4.34 12.2 9.06l13.6 11.2c2.99 2.64 4.92 3.96 5.8 3.96 1.18 0 2.19-0.51 3-1.52 1.74 1.55 3.51 2.32 5.32 2.32zm44.2 4.25-1.01-0.03-11.3-14.2c-7.31-9.51-11-15.1-11-16.7 0-0.18 0.59-0.28 1.77-0.29 0.15-0.01 0.29-0.02 0.42-0.04l0.15-0.04 0.33 0.1c1.26 0.26 3.1 0.88 5.53 1.87 2.18 1.14 7.31 4.86 15.4 11.2 5.95 4.62 9.7 7.63 11.2 9.04 2.75 2.5 5.73 5.28 8.94 8.33l-17.8-0.72c-1.35 0-2.19 0.35-2.53 1.07zm-113 1.23c-1.98 0-3.76-0.14-5.33-0.41-11.5-11.3-17.3-19.6-17.3-24.9 0-2.2 1.01-3.82 3.01-4.87 2.36-0.98 4.95-1.48 7.78-1.48 8.69 0 17.2 2.57 25.4 7.69s12.4 9.96 12.4 14.5c0 3.26-3.43 5.77-10.3 7.53-4.97 1.28-10.2 1.92-15.6 1.92zm121 19.3c1.81 0 2.71-1.02 2.71-3.08 0-1.68-3.2-6.06-9.59-13.1 3.04 0.24 5.72 0.36 8.03 0.36 1.77 0 2.88-0.37 3.33-1.13l0.03-0.07 0.41 0.03c4.88 0.28 8.18 0.52 9.9 0.74l7.05 8.45c4.41 5.22 7.2 7.83 8.37 7.83 1.81 0 2.71-1.02 2.71-3.08 0-1.68-3.2-6.06-9.59-13.1 3.04 0.24 5.72 0.36 8.03 0.36 2.37 0 3.55-0.67 3.55-2.02 0-1.37-2.29-2.2-6.85-2.49l-7.56-0.24-11.3-14.2c-7.31-9.51-11-15.1-11-16.7 0-0.18 0.59-0.28 1.77-0.29 0.15-0.01 0.29-0.02 0.42-0.04l0.15-0.04 0.04 0.02c0.13 0.04 0.27 0.08 0.42 0.11 2.11 0.38 4.09 1.02 5.94 1.9 2.15 1.32 6.2 4.34 12.2 9.06l13.6 11.2c2.99 2.64 4.92 3.96 5.8 3.96 1.18 0 2.19-0.51 3-1.52 1.74 1.55 3.51 2.32 5.32 2.32 3.14 0 4.71-1.64 4.71-4.92 0-4.09-3.16-9.55-9.48-16.4-6.43-6.9-11.7-10.4-15.9-10.4-4.3 0-6.45 2.24-6.45 6.71 0 2.16 1.14 4.88 3.43 8.15l-9.24-8.15c-5.65-3.93-9.97-5.9-13-5.9-0.29 0-0.54 0.04-0.75 0.11l-0.02 0.01-0.34-0.1c-0.43-0.08-0.93-0.13-1.5-0.13-3.83 0-5.75 1.63-5.75 4.87 0 2.19 1.02 5.13 3.05 8.82l4.59 6.38-13.8-12c-6.68-5.27-11.9-7.91-15.7-7.91-0.29 0-0.54 0.04-0.75 0.11l-0.02 0.01-0.34-0.1c-0.43-0.08-0.93-0.13-1.5-0.13-3.83 0-5.75 1.63-5.75 4.87 0 2.19 1.02 5.13 3.05 8.82l4.59 6.38-13.8-12c-6.68-5.27-11.9-7.91-15.7-7.91-1.14 0-1.71 0.59-1.71 1.77 0 1.17 0.55 1.89 1.66 2.17 1.26 0.26 3.1 0.88 5.53 1.87 2.18 1.14 7.31 4.86 15.4 11.2 5.95 4.62 9.7 7.63 11.2 9.04 2.75 2.5 5.73 5.28 8.94 8.33l-17.8-0.72c-1.8 0-2.69 0.63-2.69 1.91 0 1.07 1.05 1.75 3.17 2.05 2.57 0.41 6.07 0.75 10.5 1.04 4.88 0.28 8.18 0.52 9.9 0.74l7.05 8.45c4.41 5.22 7.2 7.83 8.37 7.83zm173 5.19-0.1-0.03c-1.43-0.54-6.39-5.17-14.9-13.9-9.2-11.5-14.9-18.5-17.2-21.2 20.8 17.7 31.5 29.3 32.2 34.8zm0.49 3.79c2.37 0 3.55-1.22 3.55-3.66 0-4.72-5.31-12.1-15.9-22-6.62-6.17-13.8-12.1-21.5-17.8-1.67-1.25-3.81-3.99-6.4-8.21-2.66-4.26-3.99-7.21-3.99-8.85 0-0.16 0.58-0.25 1.74-0.25 0.15 0 0.3 0 0.43-0.02l0.09-0.03 0.22 0.09c0.13 0.04 0.28 0.07 0.43 0.09 2.3 0.38 5.16 1.5 8.6 3.38 4.75 2.83 8.34 4.53 10.8 5.09 1.54 3.71 4.91 7.77 10.1 12.2 5.58 4.78 10.4 7.17 14.4 7.17 3.56 0 5.34-1.55 5.34-4.65 0-3.51-2.97-6.93-8.89-10.3-4.75-3.35-9.3-5.76-13.7-7.24-0.3-0.68-0.45-1.56-0.45-2.66 0-1.37 0.39-2.23 1.16-2.57 0.54-0.21 1.63-0.35 3.27-0.41 0.49-0.02 0.92-0.07 1.28-0.16l0.3-0.09 0.31 0.15c0.14 0.05 0.28 0.1 0.44 0.14 4.28 1.05 10.2 4.71 17.9 11l9.27 7.63 5.95 5.26c3.49 3.01 5.57 4.52 6.26 4.52 1.16 0 2.28-0.4 3.36-1.2 1.07-0.81 1.61-1.95 1.61-3.42l-8.58-9.99c-5.02-5.96-7.68-9.97-7.99-12l-0.02-0.25 0.29 0.04c2.06 0.44 6.82 4.23 14.3 11.4 5.97 5.7 10.9 10.8 14.9 15.3 1.03 1.16 1.88 1.74 2.55 1.74 0.89 0 1.83-0.32 2.81-0.97 0.99-0.64 1.48-1.47 1.48-2.47 0-0.61-0.23-0.68-0.69-0.19-6.68-8.23-13.8-17-21.3-26.5l2.71 0.11c0.9 0 1.35-0.64 1.35-1.93 0-1.3-1.16-2.05-3.46-2.25l-2.89-0.14-14.5-18c-8.93-10.2-15.4-15.3-19.5-15.3-2.47 0-3.7 1.54-3.7 4.61 0 5.55 3.53 11.8 10.6 18.9s14.2 11.4 21.5 13l10.5 12-6.89-7.49c-5.42-4.49-9.22-6.74-11.4-6.74-2.93 0-4.39 1.93-4.39 5.77 0 2.93 1.36 6.33 4.07 10.2l0.06 0.06-0.86-0.79c-1.68-1.5-3.51-3.06-5.52-4.66-4.4-3.49-7.39-5.75-8.97-6.79-4.41-2.96-8.06-4.44-10.9-4.44-0.29 0-0.54 0.04-0.75 0.11l-0.26 0.12-0.14-0.06c-1.27-0.4-3.17-0.6-5.7-0.6-5.28 0-7.93 2.35-7.93 7.04 0 1.02 0.13 1.67 0.37 1.93-0.74-0.38-3.31-1.62-7.71-3.73-4.83-3.21-8.46-4.81-10.9-4.81-0.29 0-0.54 0.04-0.75 0.11l-0.03 0.01-0.63-0.15c-0.49-0.09-1.05-0.13-1.7-0.13-3.61 0-5.41 1.83-5.41 5.5 0 3.06 1.37 6.95 4.11 11.7l-11.2-9.52c-7.3-5-12.7-7.5-16.2-7.5-0.43 0-0.78 0.08-1.04 0.24l-0.03 0.02-0.31-0.12c-0.66-0.2-1.51-0.3-2.56-0.3-3.47 0-5.2 1.57-5.2 4.71 0 3.03 2.51 7.4 7.54 13.1 3.78 4.29 6.14 7.08 7.08 8.37l0.18 0.26-0.22-0.06c-2.14-0.71-6.22-3.88-12.2-9.54-5.81-5.42-10.3-9.97-13.6-13.6-1.4-2.11-2.68-3.17-3.85-3.17-2.09 0-3.13 0.99-3.13 2.98 0 1.57 2.76 5.43 8.27 11.6 5.17 5.77 7.92 9.34 8.24 10.7l0.02 0.12-0.28-0.03c-1.7-0.34-5.51-3.3-11.4-8.85-5.5-5.19-9.39-9.27-11.7-12.2-2-2.58-3.85-3.88-5.57-3.88-1.91 0-2.86 0.89-2.86 2.66 0 1.59 2.51 5.52 7.55 11.8l8.29 8.81-14.9-13.6c-8.77-6.67-15-10-18.6-10-1.14 0-1.71 0.59-1.71 1.77 0 1.17 0.62 1.91 1.86 2.23 2.48 0.61 4.27 1.21 5.36 1.81 2.37 1.24 7.07 4.66 14.1 10.2 3.22 2.51 7.76 6.42 13.6 11.7 2.51 2.62 4.41 3.93 5.71 3.93 2.72 0 4.07-0.99 4.07-2.97 0-1.84-1.98-4.83-5.94-8.96 6.62 7.02 11.5 10.5 14.7 10.5 1.22 0 2.36-0.4 3.43-1.21 1.06-0.81 1.59-1.85 1.59-3.12 0-0.81-0.23-1.64-0.71-2.49l-0.66-0.96 0.76 0.82c5.12 5.36 9.59 8.04 13.4 8.04 3.11 0 4.67-1.31 4.67-3.93 0-2.74-2.89-7.06-8.65-13-5.77-5.91-8.66-9.33-8.66-10.2 0-0.22 0.61-0.34 1.83-0.36 0.46 0 0.83-0.1 1.11-0.28l0.04-0.03 0.32 0.15c0.36 0.13 0.77 0.24 1.25 0.31 1.35 0.2 2.94 0.79 4.76 1.79 2.27 1.2 6.03 3.7 11.3 7.48 4.27 3.22 8.66 6.62 13.2 10.2 5.22 7.81 12.4 16.3 21.6 25.6 10.4 10.4 17.5 15.6 21.3 15.6zm-465 0.91c1.88 0 2.82-0.99 2.82-2.97 0-1.33-1.53-3.6-4.59-6.81-5.34-5.56-13.2-14.4-23.6-26.7-12.7-14.9-19-23.2-19-24.9 0-0.12 0.58-0.2 1.72-0.24 0.29 0 0.54-0.05 0.76-0.14l0.07-0.04 0.34 0.13c0.17 0.05 0.35 0.09 0.54 0.13 1.04 0.19 2.35 0.65 3.93 1.37 3 1.33 7.18 3.71 12.5 7.12 5.22 5.38 9.1 9.44 11.6 12.2-0.18 0.81-0.27 1.39-0.27 1.75 0 1.26 1.25 3 3.75 5.22s4.3 3.33 5.41 3.33c1.56 0 2.34-0.73 2.34-2.18 0-0.8-0.44-1.49-1.32-2.07 3.96 0 5.94-1.93 5.94-5.8 0-2.76-2.55-6.86-7.65-12.3-4.79-5.11-7.33-8-7.63-8.67l-0.03-0.09 2.04 0.06c0.12 0 0.22-0.01 0.32-0.03l0.04-0.01 0.29 0.06c2.3 0.38 5.16 1.5 8.6 3.38 4.75 2.83 8.34 4.53 10.8 5.09 1.54 3.71 4.91 7.77 10.1 12.2 5.58 4.78 10.4 7.17 14.4 7.17 3.56 0 5.34-1.55 5.34-4.65 0-3.51-2.97-6.93-8.89-10.3-4.75-3.35-9.3-5.76-13.7-7.24-0.3-0.68-0.45-1.56-0.45-2.66 0-1.37 0.39-2.23 1.16-2.57 0.54-0.21 1.63-0.35 3.27-0.41 0.49-0.02 0.92-0.07 1.28-0.16l0.35-0.11 0.11 0.06c0.12 0.04 0.25 0.08 0.39 0.11 1.77 0.39 3.66 1.01 5.66 1.85 1.75 0.89 6.42 4.35 14 10.4 3.4 2.67 8.54 7.01 15.4 13 2.67 2.6 4.61 3.9 5.81 3.9 0.93 0 1.85-0.44 2.76-1.33 0.92-0.89 1.37-1.78 1.37-2.69 0-1.08-2.62-4.96-7.87-11.6-5.25-6.67-7.87-10.5-7.87-11.6 0-0.31 0.03-0.46 0.08-0.46 1.6 0 5.77 4.09 12.5 12.2 6.74 8.17 10.8 12.2 12.1 12.2 1.98 0 2.97-0.97 2.97-2.92 0-1.02-1.92-4.29-5.78-9.83-3.85-5.53-5.77-9.41-5.77-11.6 0-0.51 0.13-0.77 0.39-0.77 1.42 0 4.91 3.01 10.5 9.02-0.8 0.44-1.2 1.47-1.2 3.11 0 2.89 1.57 6.29 4.72 10.2 3.34 4.12 6.42 6.19 9.22 6.19 1.6 0 2.39-0.87 2.39-2.6 0-3.45-3.51-9.34-10.6-17.7-7.16-8.5-12.5-12.8-16.1-12.8-3.66 0-5.5 1.89-5.5 5.67 0 1.74 0.46 3.49 1.37 5.24l0.32 0.54-0.07-0.12c-1.81-2.95-3.21-4.9-4.19-5.85-3.65-3.54-6.63-5.31-8.95-5.31-3.24 0-4.86 1.72-4.86 5.18 0 2.85 1.38 6.4 4.14 10.7l6.25 7.12-13.3-12.1c-9.15-7.5-15.8-11.2-19.9-11.2-0.29 0-0.54 0.04-0.75 0.11l-0.26 0.12-0.14-0.06c-1.27-0.4-3.17-0.6-5.7-0.6-5.28 0-7.93 2.35-7.93 7.04 0 1.02 0.13 1.67 0.37 1.93-0.74-0.38-3.31-1.62-7.71-3.73-4.83-3.21-8.46-4.81-10.9-4.81-0.29 0-0.54 0.04-0.75 0.11l-0.06 0.03-0.71-0.17c-0.53-0.09-1.13-0.13-1.83-0.13-3.31 0-4.96 1.51-4.96 4.54 0 2.52 1.29 5 3.88 7.45 1.77 3.33 4.27 6.59 7.48 9.77 1.49 1.48 2.52 2.48 3.07 3.01l0.1 0.09-0.36-0.06c-0.43-0.09-0.98-0.23-1.63-0.41-1.32-0.36-2.06-0.61-2.23-0.77-16.5-15.6-27.8-23.5-33.8-23.5-0.29 0-0.54 0.04-0.75 0.11l-0.07 0.03c-0.57-0.2-1.31-0.3-2.22-0.3-3.48 0-5.22 1.5-5.22 4.5 0 2.04 1.15 4.53 3.45 7.47-5.88-7.37-10.4-11.1-13.7-11.1-3.42 0-5.13 1.8-5.13 5.39 0 1.78 0.77 3.95 2.32 6.5l-8.2-7.4c-5.15-3.49-9.2-5.24-12.1-5.24-0.43 0-0.78 0.08-1.04 0.24l-0.02 0.02-0.36-0.12c-0.77-0.2-1.77-0.3-3-0.3-3.63 0-5.44 1.66-5.44 4.98 0 2.46 2.13 5.58 6.41 9.38 0.19 1.52 2.16 4.08 5.92 7.67 1.78 1.7 2.95 2.88 3.51 3.53l0.11 0.14-0.36-0.09c-2.04-0.57-5.91-3.13-11.6-7.68-5.51-4.38-9.61-7.99-12.3-10.8-3.64-3.84-6-5.76-7.08-5.76-0.91 0-1.69 0.38-2.33 1.14-0.63 0.76-0.95 1.58-0.95 2.46 0 1.07 2.5 4.57 7.52 10.5l8.44 8.5-11.5-10.5-10.3-7.93c-5.19-3.53-9.26-5.3-12.2-5.3-1.17 0-1.76 0.57-1.76 1.7 0 1.2 0.7 1.95 2.11 2.25 1.38 0.26 2.74 0.69 4.09 1.29 2.87 1.27 8.23 5.06 16.1 11.4 7.1 5.77 12.1 9.91 15 12.4 0.78 1.08 1.78 2.02 3.01 2.83 0.82 0.3 1.59 0.46 2.33 0.46 0.83 0 1.68-0.29 2.56-0.87 0.87-0.58 1.31-1.33 1.31-2.26 0-0.87-2.81-4.56-8.43-11.1 8.65 8.19 15 12.3 19.2 12.3 3.25 0 4.87-1.54 4.87-4.61 0-2.37-2.83-6.28-8.49-11.7-5.66-5.43-8.49-8.56-8.49-9.39 0-0.47 0.64-0.75 1.91-0.83 0.16-0.01 0.31-0.03 0.45-0.06l0.34-0.1 0.33 0.16c0.13 0.05 0.28 0.1 0.43 0.14 2.64 0.64 5.41 1.65 8.32 3.03 2.45 1.82 6.7 5.36 12.7 10.6 6.03 5.26 10.7 8.87 14 10.8 2.49 1.47 4.77 2.2 6.83 2.2 3.83 0 5.78-1.29 5.85-3.87 4.03 6.31 9.33 12.7 15.9 19.1 10.6 13.1 17.1 19.6 19.5 19.6zm200 1.67-6.67-0.1-24.4-24.8c9.93 1.39 19.2 3.31 27.8 5.78 14.1 4.03 21.1 8.44 21.1 13.2 0 3.91-5.95 5.87-17.8 5.87zm-298 4.84-0.15-0.07c-3.47-1.77-13.1-8.3-28.9-19.6l-29-20.4 25.9 0.46 24.4 29.6 4.48 5.47c1.24 1.58 2.2 2.9 2.89 3.96zm294 5.04c1.14 0 1.95-0.48 2.41-1.44s0.6-1.43 0.42-1.4c16.1 0 24.2-5.02 24.2-15 0-5.85-4.77-10.6-14.3-14.3-2.76-1.49-8.83-3.3-18.2-5.42-0.95-0.26-2.06-0.39-3.35-0.38l-0.66 0.02 0.32-0.07c0.34-0.08 0.7-0.16 1.07-0.25 9.72-2.43 14.6-7.06 14.6-13.9 0-6.86-4.75-13.2-14.2-19-9.49-5.82-18.8-8.72-27.9-8.72-4.76 0-8.79 1.25-12.1 3.75-3.34 1.66-5.01 4.84-5.01 9.53 0 1.71 0.19 2.9 0.58 3.56l-4.38-7.24c-3.84-4.54-6.33-6.81-7.45-6.81-0.87 0-1.75 0.32-2.63 0.97-0.89 0.65-1.33 1.48-1.33 2.48 0 2.22 4.15 7.82 12.4 16.8 8.98 9.76 13.9 15.3 14.7 16.7l-0.88 1.98c0 2.52 1.88 3.61 5.64 3.26l24.8 24.3c-12-1.46-21.2-3.79-27.6-6.98-1.89-0.94-3.25-1.42-4.07-1.42-2.33 0-3.5 1.08-3.5 3.24 0 2.85 4.5 5.59 13.5 8.2 9 2.61 18.3 4.18 28 4.7 2.16 1.92 3.8 2.88 4.92 2.88zm-288 2.15c2.65 0 3.97-1.59 3.97-4.76 0-2.31-2.56-6.65-7.69-13l-24.6-29h3.66c3.13-0.33 4.7-1.41 4.7-3.24 0-1.49-1.26-2.24-3.77-2.24l-3.41 0.21-4.32-0.04-10.2-13c-7.63-9.49-12-14.2-13.2-14.2-1.1 0-2.02 0.65-2.76 1.96-0.65 1.06-0.98 2.07-0.98 3.01 0 1.35 5.98 8.76 17.9 22.2h-3.04c-5.69-0.03-14-0.35-25.1-0.95l-17.6-15-6.91-6.18c-3.9-3.39-6.39-5.08-7.49-5.08-1.68 0-2.52 0.87-2.52 2.6 0 1.6 5.2 6.73 15.6 15.4l11.7 8.12c-11.2-0.55-18.3-0.99-21.2-1.33l-0.268-0.03 0.6 0.01c1.25 0.01 3.13 0.01 5.63 0.01l5.87 0.09c1.76 0.04 2.64-0.52 2.64-1.69 0-1.69-4.2-2.54-12.6-2.54-7.25 0-10.9 1.19-10.9 3.57 0 2.7 2.12 4.47 6.36 5.32 1.28 0.3 4.13 0.59 8.54 0.87l20.2 1.33c8.2 6.77 19.8 15 34.9 24.6 20.1 15.3 32.2 23 36.2 23z"/>
        <path fill="none" stroke="white" stroke-linejoin="round" stroke-miterlimit="10" stroke-width="1" d="m751 455c-5.91-2.18-11.7-6.22-17.3-12.1-5.59-5.89-8.39-10.6-8.39-14.3 0-0.48 0.05-0.71 0.14-0.71 3.02 0 11.5 9.03 25.5 27.1zm-262 21.7-0.75-0.8c-5.01-5.37-7.51-9.75-7.51-13.2 0-0.97 0.43-1.45 1.29-1.45 2.31 0 6.06 2.62 11.3 7.85-2.96 0.56-4.44 2.67-4.44 6.33 0 0.48 0.04 0.84 0.11 1.09zm99.7 0-0.75-0.8c-5.01-5.37-7.51-9.75-7.51-13.2 0-0.97 0.43-1.45 1.29-1.45 2.31 0 6.06 2.62 11.3 7.85-2.96 0.56-4.44 2.67-4.44 6.33 0 0.48 0.04 0.84 0.11 1.09zm-366 5.71c-2.13 0-5.89-2.81-11.3-8.43-5.39-5.61-8.09-9.58-8.09-11.9 0-0.02-0.02-0.03-0.07-0.03 1.7 0 5.42 2.89 11.2 8.68 5.74 5.78 8.62 9.53 8.63 11.2 0 0.3-0.12 0.45-0.35 0.45zm377 0.86c-1.36 0-2.81-0.96-4.36-2.89-1.55-1.94-2.33-3.66-2.33-5.19 0-1.4 0.68-2.28 2.03-2.63 0.97 0.99 2.03 2.38 3.17 4.19 1.44 2.49 2.16 4.35 2.16 5.59 0 0.62-0.22 0.93-0.67 0.93zm-99.7 0c-1.36 0-2.81-0.96-4.36-2.89-1.55-1.94-2.33-3.66-2.33-5.19 0-1.4 0.68-2.28 2.03-2.63 0.97 0.99 2.03 2.38 3.17 4.19 1.44 2.49 2.16 4.35 2.16 5.59 0 0.62-0.22 0.93-0.67 0.93zm229 0.81c-1.95 0-4.69-1.63-8.2-4.89-3.62-4.47-5.92-7.5-6.9-9.1 2.09 1.47 4.9 3.54 8.44 6.21 4.49 3.35 6.74 5.87 6.74 7.59 0 0.12-0.03 0.19-0.08 0.19zm-433 0c-1.95 0-4.69-1.63-8.2-4.89-3.62-4.47-5.92-7.5-6.9-9.1 2.09 1.47 4.9 3.54 8.44 6.21 4.49 3.35 6.74 5.87 6.74 7.59 0 0.12-0.03 0.19-0.08 0.19zm56.6 0.55-0.02-0.01c-0.91-0.45-2.22-1.86-3.92-4.24-1.83-2.57-2.86-4.53-3.09-5.88l-0.03-0.32 0.36 0.43c3.91 4.67 6.12 7.92 6.64 9.76zm149 2.67c3.14 0 4.71-1.64 4.71-4.92 0-4.09-3.16-9.55-9.48-16.4-6.43-6.9-11.7-10.4-15.9-10.4-4.3 0-6.45 2.24-6.45 6.71 0 2.16 1.14 4.88 3.43 8.15l-9.24-8.15c-5.65-3.93-9.97-5.9-13-5.9-1.14 0-1.71 0.57-1.71 1.72 0 1.26 0.6 2.01 1.79 2.25 2.11 0.38 4.09 1.02 5.94 1.9 2.15 1.32 6.2 4.34 12.2 9.06l13.6 11.2c2.99 2.64 4.92 3.96 5.8 3.96 1.18 0 2.19-0.51 3-1.52 1.74 1.55 3.51 2.32 5.32 2.32zm44.2 4.25-1.01-0.03-11.3-14.2c-7.31-9.51-11-15.1-11-16.7 0-0.18 0.59-0.28 1.77-0.29 0.15-0.01 0.29-0.02 0.42-0.04l0.15-0.04 0.33 0.1c1.26 0.26 3.1 0.88 5.53 1.87 2.18 1.14 7.31 4.86 15.4 11.2 5.95 4.62 9.7 7.63 11.2 9.04 2.75 2.5 5.73 5.28 8.94 8.33l-17.8-0.72c-1.35 0-2.19 0.35-2.53 1.07zm-113 1.23c-1.98 0-3.76-0.14-5.33-0.41-11.5-11.3-17.3-19.6-17.3-24.9 0-2.2 1.01-3.82 3.01-4.87 2.36-0.98 4.95-1.48 7.78-1.48 8.69 0 17.2 2.57 25.4 7.69s12.4 9.96 12.4 14.5c0 3.26-3.43 5.77-10.3 7.53-4.97 1.28-10.2 1.92-15.6 1.92zm121 19.3c1.81 0 2.71-1.02 2.71-3.08 0-1.68-3.2-6.06-9.59-13.1 3.04 0.24 5.72 0.36 8.03 0.36 1.77 0 2.88-0.37 3.33-1.13l0.03-0.07 0.41 0.03c4.88 0.28 8.18 0.52 9.9 0.74l7.05 8.45c4.41 5.22 7.2 7.83 8.37 7.83 1.81 0 2.71-1.02 2.71-3.08 0-1.68-3.2-6.06-9.59-13.1 3.04 0.24 5.72 0.36 8.03 0.36 2.37 0 3.55-0.67 3.55-2.02 0-1.37-2.29-2.2-6.85-2.49l-7.56-0.24-11.3-14.2c-7.31-9.51-11-15.1-11-16.7 0-0.18 0.59-0.28 1.77-0.29 0.15-0.01 0.29-0.02 0.42-0.04l0.15-0.04 0.04 0.02c0.13 0.04 0.27 0.08 0.42 0.11 2.11 0.38 4.09 1.02 5.94 1.9 2.15 1.32 6.2 4.34 12.2 9.06l13.6 11.2c2.99 2.64 4.92 3.96 5.8 3.96 1.18 0 2.19-0.51 3-1.52 1.74 1.55 3.51 2.32 5.32 2.32 3.14 0 4.71-1.64 4.71-4.92 0-4.09-3.16-9.55-9.48-16.4-6.43-6.9-11.7-10.4-15.9-10.4-4.3 0-6.45 2.24-6.45 6.71 0 2.16 1.14 4.88 3.43 8.15l-9.24-8.15c-5.65-3.93-9.97-5.9-13-5.9-0.29 0-0.54 0.04-0.75 0.11l-0.02 0.01-0.34-0.1c-0.43-0.08-0.93-0.13-1.5-0.13-3.83 0-5.75 1.63-5.75 4.87 0 2.19 1.02 5.13 3.05 8.82l4.59 6.38-13.8-12c-6.68-5.27-11.9-7.91-15.7-7.91-0.29 0-0.54 0.04-0.75 0.11l-0.02 0.01-0.34-0.1c-0.43-0.08-0.93-0.13-1.5-0.13-3.83 0-5.75 1.63-5.75 4.87 0 2.19 1.02 5.13 3.05 8.82l4.59 6.38-13.8-12c-6.68-5.27-11.9-7.91-15.7-7.91-1.14 0-1.71 0.59-1.71 1.77 0 1.17 0.55 1.89 1.66 2.17 1.26 0.26 3.1 0.88 5.53 1.87 2.18 1.14 7.31 4.86 15.4 11.2 5.95 4.62 9.7 7.63 11.2 9.04 2.75 2.5 5.73 5.28 8.94 8.33l-17.8-0.72c-1.8 0-2.69 0.63-2.69 1.91 0 1.07 1.05 1.75 3.17 2.05 2.57 0.41 6.07 0.75 10.5 1.04 4.88 0.28 8.18 0.52 9.9 0.74l7.05 8.45c4.41 5.22 7.2 7.83 8.37 7.83zm173 5.19-0.1-0.03c-1.43-0.54-6.39-5.17-14.9-13.9-9.2-11.5-14.9-18.5-17.2-21.2 20.8 17.7 31.5 29.3 32.2 34.8zm0.49 3.79c2.37 0 3.55-1.22 3.55-3.66 0-4.72-5.31-12.1-15.9-22-6.62-6.17-13.8-12.1-21.5-17.8-1.67-1.25-3.81-3.99-6.4-8.21-2.66-4.26-3.99-7.21-3.99-8.85 0-0.16 0.58-0.25 1.74-0.25 0.15 0 0.3 0 0.43-0.02l0.09-0.03 0.22 0.09c0.13 0.04 0.28 0.07 0.43 0.09 2.3 0.38 5.16 1.5 8.6 3.38 4.75 2.83 8.34 4.53 10.8 5.09 1.54 3.71 4.91 7.77 10.1 12.2 5.58 4.78 10.4 7.17 14.4 7.17 3.56 0 5.34-1.55 5.34-4.65 0-3.51-2.97-6.93-8.89-10.3-4.75-3.35-9.3-5.76-13.7-7.24-0.3-0.68-0.45-1.56-0.45-2.66 0-1.37 0.39-2.23 1.16-2.57 0.54-0.21 1.63-0.35 3.27-0.41 0.49-0.02 0.92-0.07 1.28-0.16l0.3-0.09 0.31 0.15c0.14 0.05 0.28 0.1 0.44 0.14 4.28 1.05 10.2 4.71 17.9 11l9.27 7.63 5.95 5.26c3.49 3.01 5.57 4.52 6.26 4.52 1.16 0 2.28-0.4 3.36-1.2 1.07-0.81 1.61-1.95 1.61-3.42l-8.58-9.99c-5.02-5.96-7.68-9.97-7.99-12l-0.02-0.25 0.29 0.04c2.06 0.44 6.82 4.23 14.3 11.4 5.97 5.7 10.9 10.8 14.9 15.3 1.03 1.16 1.88 1.74 2.55 1.74 0.89 0 1.83-0.32 2.81-0.97 0.99-0.64 1.48-1.47 1.48-2.47 0-0.61-0.23-0.68-0.69-0.19-6.68-8.23-13.8-17-21.3-26.5l2.71 0.11c0.9 0 1.35-0.64 1.35-1.93 0-1.3-1.16-2.05-3.46-2.25l-2.89-0.14-14.5-18c-8.93-10.2-15.4-15.3-19.5-15.3-2.47 0-3.7 1.54-3.7 4.61 0 5.55 3.53 11.8 10.6 18.9s14.2 11.4 21.5 13l10.5 12-6.89-7.49c-5.42-4.49-9.22-6.74-11.4-6.74-2.93 0-4.39 1.93-4.39 5.77 0 2.93 1.36 6.33 4.07 10.2l0.06 0.06-0.86-0.79c-1.68-1.5-3.51-3.06-5.52-4.66-4.4-3.49-7.39-5.75-8.97-6.79-4.41-2.96-8.06-4.44-10.9-4.44-0.29 0-0.54 0.04-0.75 0.11l-0.26 0.12-0.14-0.06c-1.27-0.4-3.17-0.6-5.7-0.6-5.28 0-7.93 2.35-7.93 7.04 0 1.02 0.13 1.67 0.37 1.93-0.74-0.38-3.31-1.62-7.71-3.73-4.83-3.21-8.46-4.81-10.9-4.81-0.29 0-0.54 0.04-0.75 0.11l-0.03 0.01-0.63-0.15c-0.49-0.09-1.05-0.13-1.7-0.13-3.61 0-5.41 1.83-5.41 5.5 0 3.06 1.37 6.95 4.11 11.7l-11.2-9.52c-7.3-5-12.7-7.5-16.2-7.5-0.43 0-0.78 0.08-1.04 0.24l-0.03 0.02-0.31-0.12c-0.66-0.2-1.51-0.3-2.56-0.3-3.47 0-5.2 1.57-5.2 4.71 0 3.03 2.51 7.4 7.54 13.1 3.78 4.29 6.14 7.08 7.08 8.37l0.18 0.26-0.22-0.06c-2.14-0.71-6.22-3.88-12.2-9.54-5.81-5.42-10.3-9.97-13.6-13.6-1.4-2.11-2.68-3.17-3.85-3.17-2.09 0-3.13 0.99-3.13 2.98 0 1.57 2.76 5.43 8.27 11.6 5.17 5.77 7.92 9.34 8.24 10.7l0.02 0.12-0.28-0.03c-1.7-0.34-5.51-3.3-11.4-8.85-5.5-5.19-9.39-9.27-11.7-12.2-2-2.58-3.85-3.88-5.57-3.88-1.91 0-2.86 0.89-2.86 2.66 0 1.59 2.51 5.52 7.55 11.8l8.29 8.81-14.9-13.6c-8.77-6.67-15-10-18.6-10-1.14 0-1.71 0.59-1.71 1.77 0 1.17 0.62 1.91 1.86 2.23 2.48 0.61 4.27 1.21 5.36 1.81 2.37 1.24 7.07 4.66 14.1 10.2 3.22 2.51 7.76 6.42 13.6 11.7 2.51 2.62 4.41 3.93 5.71 3.93 2.72 0 4.07-0.99 4.07-2.97 0-1.84-1.98-4.83-5.94-8.96 6.62 7.02 11.5 10.5 14.7 10.5 1.22 0 2.36-0.4 3.43-1.21 1.06-0.81 1.59-1.85 1.59-3.12 0-0.81-0.23-1.64-0.71-2.49l-0.66-0.96 0.76 0.82c5.12 5.36 9.59 8.04 13.4 8.04 3.11 0 4.67-1.31 4.67-3.93 0-2.74-2.89-7.06-8.65-13-5.77-5.91-8.66-9.33-8.66-10.2 0-0.22 0.61-0.34 1.83-0.36 0.46 0 0.83-0.1 1.11-0.28l0.04-0.03 0.32 0.15c0.36 0.13 0.77 0.24 1.25 0.31 1.35 0.2 2.94 0.79 4.76 1.79 2.27 1.2 6.03 3.7 11.3 7.48 4.27 3.22 8.66 6.62 13.2 10.2 5.22 7.81 12.4 16.3 21.6 25.6 10.4 10.4 17.5 15.6 21.3 15.6zm-465 0.91c1.88 0 2.82-0.99 2.82-2.97 0-1.33-1.53-3.6-4.59-6.81-5.34-5.56-13.2-14.4-23.6-26.7-12.7-14.9-19-23.2-19-24.9 0-0.12 0.58-0.2 1.72-0.24 0.29 0 0.54-0.05 0.76-0.14l0.07-0.04 0.34 0.13c0.17 0.05 0.35 0.09 0.54 0.13 1.04 0.19 2.35 0.65 3.93 1.37 3 1.33 7.18 3.71 12.5 7.12 5.22 5.38 9.1 9.44 11.6 12.2-0.18 0.81-0.27 1.39-0.27 1.75 0 1.26 1.25 3 3.75 5.22s4.3 3.33 5.41 3.33c1.56 0 2.34-0.73 2.34-2.18 0-0.8-0.44-1.49-1.32-2.07 3.96 0 5.94-1.93 5.94-5.8 0-2.76-2.55-6.86-7.65-12.3-4.79-5.11-7.33-8-7.63-8.67l-0.03-0.09 2.04 0.06c0.12 0 0.22-0.01 0.32-0.03l0.04-0.01 0.29 0.06c2.3 0.38 5.16 1.5 8.6 3.38 4.75 2.83 8.34 4.53 10.8 5.09 1.54 3.71 4.91 7.77 10.1 12.2 5.58 4.78 10.4 7.17 14.4 7.17 3.56 0 5.34-1.55 5.34-4.65 0-3.51-2.97-6.93-8.89-10.3-4.75-3.35-9.3-5.76-13.7-7.24-0.3-0.68-0.45-1.56-0.45-2.66 0-1.37 0.39-2.23 1.16-2.57 0.54-0.21 1.63-0.35 3.27-0.41 0.49-0.02 0.92-0.07 1.28-0.16l0.35-0.11 0.11 0.06c0.12 0.04 0.25 0.08 0.39 0.11 1.77 0.39 3.66 1.01 5.66 1.85 1.75 0.89 6.42 4.35 14 10.4 3.4 2.67 8.54 7.01 15.4 13 2.67 2.6 4.61 3.9 5.81 3.9 0.93 0 1.85-0.44 2.76-1.33 0.92-0.89 1.37-1.78 1.37-2.69 0-1.08-2.62-4.96-7.87-11.6-5.25-6.67-7.87-10.5-7.87-11.6 0-0.31 0.03-0.46 0.08-0.46 1.6 0 5.77 4.09 12.5 12.2 6.74 8.17 10.8 12.2 12.1 12.2 1.98 0 2.97-0.97 2.97-2.92 0-1.02-1.92-4.29-5.78-9.83-3.85-5.53-5.77-9.41-5.77-11.6 0-0.51 0.13-0.77 0.39-0.77 1.42 0 4.91 3.01 10.5 9.02-0.8 0.44-1.2 1.47-1.2 3.11 0 2.89 1.57 6.29 4.72 10.2 3.34 4.12 6.42 6.19 9.22 6.19 1.6 0 2.39-0.87 2.39-2.6 0-3.45-3.51-9.34-10.6-17.7-7.16-8.5-12.5-12.8-16.1-12.8-3.66 0-5.5 1.89-5.5 5.67 0 1.74 0.46 3.49 1.37 5.24l0.32 0.54-0.07-0.12c-1.81-2.95-3.21-4.9-4.19-5.85-3.65-3.54-6.63-5.31-8.95-5.31-3.24 0-4.86 1.72-4.86 5.18 0 2.85 1.38 6.4 4.14 10.7l6.25 7.12-13.3-12.1c-9.15-7.5-15.8-11.2-19.9-11.2-0.29 0-0.54 0.04-0.75 0.11l-0.26 0.12-0.14-0.06c-1.27-0.4-3.17-0.6-5.7-0.6-5.28 0-7.93 2.35-7.93 7.04 0 1.02 0.13 1.67 0.37 1.93-0.74-0.38-3.31-1.62-7.71-3.73-4.83-3.21-8.46-4.81-10.9-4.81-0.29 0-0.54 0.04-0.75 0.11l-0.06 0.03-0.71-0.17c-0.53-0.09-1.13-0.13-1.83-0.13-3.31 0-4.96 1.51-4.96 4.54 0 2.52 1.29 5 3.88 7.45 1.77 3.33 4.27 6.59 7.48 9.77 1.49 1.48 2.52 2.48 3.07 3.01l0.1 0.09-0.36-0.06c-0.43-0.09-0.98-0.23-1.63-0.41-1.32-0.36-2.06-0.61-2.23-0.77-16.5-15.6-27.8-23.5-33.8-23.5-0.29 0-0.54 0.04-0.75 0.11l-0.07 0.03c-0.57-0.2-1.31-0.3-2.22-0.3-3.48 0-5.22 1.5-5.22 4.5 0 2.04 1.15 4.53 3.45 7.47-5.88-7.37-10.4-11.1-13.7-11.1-3.42 0-5.13 1.8-5.13 5.39 0 1.78 0.77 3.95 2.32 6.5l-8.2-7.4c-5.15-3.49-9.2-5.24-12.1-5.24-0.43 0-0.78 0.08-1.04 0.24l-0.02 0.02-0.36-0.12c-0.77-0.2-1.77-0.3-3-0.3-3.63 0-5.44 1.66-5.44 4.98 0 2.46 2.13 5.58 6.41 9.38 0.19 1.52 2.16 4.08 5.92 7.67 1.78 1.7 2.95 2.88 3.51 3.53l0.11 0.14-0.36-0.09c-2.04-0.57-5.91-3.13-11.6-7.68-5.51-4.38-9.61-7.99-12.3-10.8-3.64-3.84-6-5.76-7.08-5.76-0.91 0-1.69 0.38-2.33 1.14-0.63 0.76-0.95 1.58-0.95 2.46 0 1.07 2.5 4.57 7.52 10.5l8.44 8.5-11.5-10.5-10.3-7.93c-5.19-3.53-9.26-5.3-12.2-5.3-1.17 0-1.76 0.57-1.76 1.7 0 1.2 0.7 1.95 2.11 2.25 1.38 0.26 2.74 0.69 4.09 1.29 2.87 1.27 8.23 5.06 16.1 11.4 7.1 5.77 12.1 9.91 15 12.4 0.78 1.08 1.78 2.02 3.01 2.83 0.82 0.3 1.59 0.46 2.33 0.46 0.83 0 1.68-0.29 2.56-0.87 0.87-0.58 1.31-1.33 1.31-2.26 0-0.87-2.81-4.56-8.43-11.1 8.65 8.19 15 12.3 19.2 12.3 3.25 0 4.87-1.54 4.87-4.61 0-2.37-2.83-6.28-8.49-11.7-5.66-5.43-8.49-8.56-8.49-9.39 0-0.47 0.64-0.75 1.91-0.83 0.16-0.01 0.31-0.03 0.45-0.06l0.34-0.1 0.33 0.16c0.13 0.05 0.28 0.1 0.43 0.14 2.64 0.64 5.41 1.65 8.32 3.03 2.45 1.82 6.7 5.36 12.7 10.6 6.03 5.26 10.7 8.87 14 10.8 2.49 1.47 4.77 2.2 6.83 2.2 3.83 0 5.78-1.29 5.85-3.87 4.03 6.31 9.33 12.7 15.9 19.1 10.6 13.1 17.1 19.6 19.5 19.6zm200 1.67-6.67-0.1-24.4-24.8c9.93 1.39 19.2 3.31 27.8 5.78 14.1 4.03 21.1 8.44 21.1 13.2 0 3.91-5.95 5.87-17.8 5.87zm-298 4.84-0.15-0.07c-3.47-1.77-13.1-8.3-28.9-19.6l-29-20.4 25.9 0.46 24.4 29.6 4.48 5.47c1.24 1.58 2.2 2.9 2.89 3.96zm294 5.04c1.14 0 1.95-0.48 2.41-1.44s0.6-1.43 0.42-1.4c16.1 0 24.2-5.02 24.2-15 0-5.85-4.77-10.6-14.3-14.3-2.76-1.49-8.83-3.3-18.2-5.42-0.95-0.26-2.06-0.39-3.35-0.38l-0.66 0.02 0.32-0.07c0.34-0.08 0.7-0.16 1.07-0.25 9.72-2.43 14.6-7.06 14.6-13.9 0-6.86-4.75-13.2-14.2-19-9.49-5.82-18.8-8.72-27.9-8.72-4.76 0-8.79 1.25-12.1 3.75-3.34 1.66-5.01 4.84-5.01 9.53 0 1.71 0.19 2.9 0.58 3.56l-4.38-7.24c-3.84-4.54-6.33-6.81-7.45-6.81-0.87 0-1.75 0.32-2.63 0.97-0.89 0.65-1.33 1.48-1.33 2.48 0 2.22 4.15 7.82 12.4 16.8 8.98 9.76 13.9 15.3 14.7 16.7l-0.88 1.98c0 2.52 1.88 3.61 5.64 3.26l24.8 24.3c-12-1.46-21.2-3.79-27.6-6.98-1.89-0.94-3.25-1.42-4.07-1.42-2.33 0-3.5 1.08-3.5 3.24 0 2.85 4.5 5.59 13.5 8.2 9 2.61 18.3 4.18 28 4.7 2.16 1.92 3.8 2.88 4.92 2.88zm-288 2.15c2.65 0 3.97-1.59 3.97-4.76 0-2.31-2.56-6.65-7.69-13l-24.6-29h3.66c3.13-0.33 4.7-1.41 4.7-3.24 0-1.49-1.26-2.24-3.77-2.24l-3.41 0.21-4.32-0.04-10.2-13c-7.63-9.49-12-14.2-13.2-14.2-1.1 0-2.02 0.65-2.76 1.96-0.65 1.06-0.98 2.07-0.98 3.01 0 1.35 5.98 8.76 17.9 22.2h-3.04c-5.69-0.03-14-0.35-25.1-0.95l-17.6-15-6.91-6.18c-3.9-3.39-6.39-5.08-7.49-5.08-1.68 0-2.52 0.87-2.52 2.6 0 1.6 5.2 6.73 15.6 15.4l11.7 8.12c-11.2-0.55-18.3-0.99-21.2-1.33l-0.268-0.03 0.6 0.01c1.25 0.01 3.13 0.01 5.63 0.01l5.87 0.09c1.76 0.04 2.64-0.52 2.64-1.69 0-1.69-4.2-2.54-12.6-2.54-7.25 0-10.9 1.19-10.9 3.57 0 2.7 2.12 4.47 6.36 5.32 1.28 0.3 4.13 0.59 8.54 0.87l20.2 1.33c8.2 6.77 19.8 15 34.9 24.6 20.1 15.3 32.2 23 36.2 23z"/>
    </g>
</svg>