<?xml version="1.0" standalone="no"?>
<!DOCTYPE svg PUBLIC "-//W3C//DTD SVG 20010904//EN"
 "http://www.w3.org/TR/2001/REC-SVG-20010904/DTD/svg10.dtd">
<svg version="1.0" xmlns="http://www.w3.org/2000/svg"
 width="2349.000000pt" height="446.000000pt" viewBox="0 0 2349.000000 446.000000"
 preserveAspectRatio="xMidYMid meet">

<g transform="translate(0.000000,446.000000) scale(0.100000,-0.100000)"
fill="#000000" stroke="none">
<path d="M13330 3940 c-423 -31 -889 -180 -1199 -383 -254 -167 -458 -387
-557 -602 -95 -207 -109 -428 -35 -573 30 -59 105 -137 174 -180 131 -82 258
-112 476 -112 231 0 414 40 616 134 322 151 613 421 701 652 39 101 45 240 14
311 -45 105 -174 191 -318 213 -81 13 -223 2 -324 -25 -260 -68 -570 -271
-784 -514 -83 -94 -244 -322 -244 -345 0 -28 27 -49 53 -42 35 8 59 33 146
151 187 252 496 500 744 595 268 104 482 89 590 -39 89 -106 29 -288 -156
-472 -310 -308 -936 -551 -1247 -485 -154 33 -288 127 -342 241 -51 109 -35
258 47 430 198 418 717 760 1340 884 332 66 666 69 944 9 193 -41 437 -142
555 -230 l58 -43 -28 -22 c-16 -12 -90 -69 -164 -126 -326 -252 -552 -470
-965 -936 -318 -359 -520 -576 -656 -705 -252 -240 -536 -394 -809 -440 -148
-24 -265 -29 -383 -17 -130 14 -209 38 -278 82 l-52 33 41 14 c110 36 147 174
69 258 -77 84 -220 60 -275 -46 -20 -38 -23 -56 -19 -115 5 -86 28 -135 94
-196 178 -167 608 -202 1023 -83 209 60 463 180 670 318 295 197 461 361 737
729 58 78 109 146 113 151 5 4 22 -3 40 -15 29 -22 42 -24 170 -26 77 -1 144
-4 151 -8 22 -14 49 -91 49 -143 0 -142 -145 -401 -332 -590 -239 -242 -551
-390 -652 -311 -14 11 -26 30 -26 42 0 75 119 222 273 338 43 32 75 59 70 59
-11 1 80 49 93 50 8 0 10 -15 7 -42 -15 -136 193 -205 251 -84 29 62 16 114
-41 167 -72 67 -178 86 -276 49 -162 -61 -407 -280 -470 -420 -28 -64 -29
-169 -1 -207 28 -38 78 -71 128 -84 83 -23 281 7 446 67 235 84 413 219 532
404 100 155 138 279 138 450 0 122 -17 204 -53 259 l-26 39 87 27 c294 91 497
268 578 505 15 44 19 83 19 190 -1 150 -14 202 -81 307 l-33 52 117 74 c64 41
131 81 149 90 17 9 37 23 45 31 16 15 92 56 106 56 5 0 7 -19 5 -42 -11 -101
114 -181 206 -133 32 16 61 69 61 110 0 52 -49 114 -120 151 -52 28 -171 26
-230 -3 -55 -27 -193 -111 -318 -192 l-94 -61 -63 57 c-208 191 -567 303
-1005 317 -85 2 -207 1 -270 -4z m469 -26 c336 -39 625 -150 796 -306 35 -32
68 -58 74 -58 7 0 44 22 84 48 40 27 106 68 147 93 41 24 77 46 80 49 41 44
163 92 230 92 107 -1 200 -79 200 -166 -1 -49 -15 -71 -62 -90 -82 -35 -168
26 -168 118 0 19 5 38 10 41 17 10 1 25 -26 25 -24 0 -74 -21 -98 -41 -6 -5
-86 -56 -178 -112 -93 -56 -168 -108 -168 -116 0 -8 16 -39 37 -69 59 -90 86
-181 86 -292 0 -173 -57 -304 -193 -441 -120 -121 -271 -205 -449 -250 -29 -7
-56 -19 -58 -26 -3 -7 9 -29 26 -48 85 -97 91 -333 12 -528 -107 -267 -338
-473 -651 -577 -277 -93 -465 -76 -517 49 -54 128 71 303 371 518 139 100 300
97 375 -8 23 -31 31 -53 31 -83 -1 -49 -15 -71 -62 -90 -82 -35 -168 26 -168
118 0 19 5 38 10 41 17 10 1 25 -26 25 -14 0 -39 -7 -56 -16 -29 -15 -37 -21
-71 -49 -7 -6 -41 -33 -77 -60 -178 -136 -282 -289 -255 -375 22 -69 169 -65
331 10 261 121 511 371 644 645 67 137 83 229 56 319 -26 84 -34 88 -156 81
-120 -8 -173 2 -214 40 -15 14 -32 25 -39 25 -7 -1 -63 -70 -126 -155 -141
-192 -225 -292 -349 -419 -302 -307 -730 -557 -1129 -661 -455 -119 -905 -31
-1002 195 -46 107 -16 217 71 261 125 64 259 -72 188 -189 -24 -39 -75 -72
-112 -72 -61 0 -14 -57 86 -104 77 -37 205 -56 370 -56 254 0 430 40 641 145
72 36 173 95 225 132 127 90 479 442 770 773 520 589 756 819 1115 1087 77 58
141 113 143 123 6 37 -156 139 -337 210 -230 91 -422 124 -726 124 -286 0
-489 -28 -733 -99 -368 -108 -657 -269 -878 -489 -231 -232 -344 -461 -331
-676 6 -105 34 -166 112 -239 111 -103 215 -141 391 -141 144 0 257 20 423 75
512 171 899 493 919 765 6 88 -1 112 -45 161 -71 79 -189 116 -328 105 -209
-18 -408 -102 -645 -274 -108 -79 -313 -289 -409 -419 -78 -106 -112 -136
-132 -116 -12 12 21 71 98 180 201 284 505 528 805 647 91 36 237 66 323 66
172 0 338 -87 397 -208 48 -100 18 -264 -78 -420 -91 -147 -307 -338 -525
-464 -392 -226 -886 -261 -1165 -83 -81 52 -148 124 -186 202 -32 66 -33 71
-33 193 1 101 5 139 23 197 82 264 313 541 613 736 291 190 724 334 1129 376
139 14 376 12 519 -5z"/>
<path d="M14550 3378 c-227 -187 -750 -747 -750 -803 0 -8 23 -14 69 -17 49
-4 89 -14 136 -37 37 -17 77 -31 90 -31 37 0 156 66 225 125 178 152 331 374
370 534 30 126 5 291 -44 291 -11 0 -55 -28 -96 -62z m109 28 c6 -8 17 -39 23
-70 24 -112 -22 -263 -128 -423 -83 -126 -277 -317 -370 -366 -40 -20 -79 -37
-87 -37 -8 0 -40 12 -72 26 -31 14 -88 31 -126 38 l-69 12 43 59 c67 91 222
261 421 461 160 159 329 312 347 314 4 0 12 -6 18 -14z"/>
<path d="M4760 3864 c-209 -62 -461 -191 -750 -384 -215 -144 -506 -392 -924
-789 -82 -78 -153 -138 -156 -134 -4 5 -15 31 -25 58 -101 278 -330 530 -551
604 -97 33 -261 40 -350 16 -176 -48 -338 -233 -395 -452 -26 -102 -35 -276
-20 -384 34 -226 140 -433 318 -620 41 -43 72 -83 68 -89 -14 -23 -222 -151
-362 -223 -331 -169 -599 -215 -829 -143 -128 41 -252 126 -291 200 -14 27
-14 28 3 21 11 -4 45 -10 76 -13 71 -6 132 21 168 75 37 54 35 145 -3 200 -39
57 -91 83 -165 83 -73 0 -99 -9 -146 -51 -64 -56 -81 -100 -81 -209 1 -106 16
-153 76 -227 69 -85 207 -167 345 -205 101 -27 304 -29 439 -3 255 48 499 163
760 358 l100 74 55 -37 c118 -80 295 -154 438 -183 l62 -13 -61 -109 c-87
-157 -144 -239 -207 -295 -74 -66 -187 -122 -257 -128 l-55 -5 30 33 c109 117
80 261 -63 306 -92 29 -174 -10 -222 -107 -86 -168 68 -351 296 -352 67 -1 84
3 150 35 188 91 494 351 630 535 22 29 42 53 45 53 3 0 38 5 77 11 163 24 367
106 532 213 47 31 85 53 85 49 0 -4 6 0 13 9 6 8 77 60 157 113 146 99 279
170 302 163 7 -3 -21 -38 -63 -84 -181 -190 -425 -463 -451 -503 -32 -51 -35
-82 -12 -105 20 -20 90 -21 135 -2 43 18 162 103 214 152 186 177 448 394 551
457 97 58 169 85 217 78 20 -3 -24 -50 -151 -159 -75 -65 -160 -144 -189 -175
-107 -118 -124 -268 -38 -347 24 -22 35 -25 103 -25 59 1 90 7 132 25 90 39
184 99 293 186 56 45 103 81 104 80 1 -1 -2 -19 -7 -41 -23 -99 -2 -192 54
-245 23 -21 39 -25 101 -28 114 -6 211 35 363 152 l59 45 -1 -57 c-1 -95 48
-142 150 -142 75 0 165 41 264 121 71 57 517 379 526 379 3 0 61 45 129 100
90 72 132 100 152 100 24 0 14 -13 -103 -133 -72 -72 -147 -153 -167 -178 -99
-124 -113 -277 -31 -348 102 -90 297 -21 579 204 l90 72 0 -108 c0 -120 10
-145 76 -184 55 -32 180 -27 296 13 106 36 331 146 418 205 78 52 288 207 373
275 131 105 265 203 304 223 84 43 55 -7 -69 -117 -155 -139 -248 -237 -273
-288 -34 -72 -39 -180 -11 -238 71 -143 238 -107 530 116 31 23 61 45 66 48 6
4 10 -23 10 -72 0 -85 12 -112 68 -154 111 -83 468 41 670 232 37 36 62 52 64
44 8 -23 61 -42 115 -42 40 0 65 7 103 29 60 35 145 108 145 125 0 18 -43 56
-64 56 -9 0 -40 -18 -69 -39 -104 -79 -156 -77 -80 3 148 152 219 282 199 360
-10 39 -34 56 -79 56 -37 0 -47 -6 -97 -58 -58 -61 -128 -182 -165 -288 -18
-51 -32 -71 -76 -109 -192 -165 -495 -309 -574 -273 -27 12 -27 18 6 147 33
130 22 201 -31 201 -39 0 -123 -42 -188 -93 -179 -141 -365 -257 -413 -257
-38 0 -17 30 83 122 301 274 328 311 328 447 0 107 -34 158 -117 176 -71 14
-184 -41 -339 -167 -50 -40 -136 -109 -190 -153 -155 -125 -302 -226 -394
-272 -248 -123 -336 -159 -414 -169 -35 -5 -44 -2 -65 20 l-24 26 36 52 c20
29 60 77 89 105 50 50 58 53 137 68 115 22 236 68 333 126 100 60 144 101 169
154 29 62 25 101 -15 141 -31 31 -40 34 -90 34 -139 0 -304 -74 -591 -265
-100 -66 -188 -124 -196 -130 -9 -5 -71 -52 -139 -103 -184 -140 -347 -228
-404 -220 -17 2 25 50 210 238 127 129 243 257 259 284 33 57 32 60 -54 151
l-54 57 -41 -12 c-23 -6 -49 -14 -60 -17 -17 -5 -18 -1 -12 32 9 47 -8 99 -41
125 -53 42 -154 15 -188 -49 -19 -37 -20 -117 -1 -152 13 -26 12 -28 -68 -94
-71 -58 -481 -352 -703 -502 -83 -57 -124 -75 -142 -64 -17 11 45 88 204 251
443 457 1230 1275 1278 1327 31 34 77 90 102 124 38 51 45 69 43 98 -3 31 -7
36 -31 39 -83 10 -189 -86 -807 -727 -457 -474 -505 -521 -511 -499 -12 45
-30 68 -69 88 -81 41 -237 16 -434 -70 -155 -69 -426 -239 -621 -391 -71 -55
-161 -119 -198 -141 -73 -44 -196 -93 -206 -82 -3 3 35 43 84 87 186 168 294
282 320 339 34 75 42 162 18 207 -32 61 -63 76 -157 76 -77 0 -88 -3 -167 -42
-46 -23 -121 -69 -167 -102 -45 -34 -83 -61 -85 -61 -1 0 -1 26 1 59 6 103
-43 156 -143 154 -76 -2 -153 -36 -293 -131 -70 -47 -175 -118 -233 -157 -202
-136 -486 -265 -581 -265 -19 0 -19 1 0 28 67 93 916 1087 1223 1432 313 351
419 463 569 599 207 188 220 201 226 226 13 51 -63 126 -126 124 -14 0 -63
-11 -110 -25z m167 -14 c62 -37 66 -83 10 -129 -308 -256 -667 -648 -1514
-1649 -403 -475 -493 -585 -493 -600 0 -18 49 -14 155 13 147 37 375 161 638
347 229 161 345 209 420 173 63 -30 81 -79 63 -172 -11 -59 3 -56 100 17 43
33 121 81 173 108 88 44 98 47 172 47 75 0 80 -1 111 -33 31 -30 33 -37 33
-100 -1 -119 -55 -190 -337 -445 -64 -57 -98 -96 -98 -109 0 -54 194 19 342
130 42 32 120 91 174 133 90 68 291 204 304 204 3 0 33 17 67 38 193 117 440
199 538 177 48 -11 103 -64 111 -107 4 -19 12 -33 18 -31 6 2 243 243 525 536
602 626 706 722 781 722 30 0 26 -38 -10 -91 -49 -73 -147 -178 -844 -898
-367 -380 -691 -718 -718 -752 -55 -69 -58 -93 -11 -97 40 -4 103 28 208 104
44 32 195 139 336 238 281 199 407 295 408 312 1 7 -6 14 -13 17 -8 3 -20 24
-26 47 -9 34 -8 47 8 83 31 69 83 96 140 72 54 -23 71 -77 47 -152 -9 -28 9
-30 81 -8 l49 15 62 -66 63 -66 -22 -41 c-12 -25 -117 -139 -249 -273 -187
-189 -229 -237 -229 -259 0 -27 1 -28 43 -22 87 12 239 97 417 233 152 115
468 324 585 386 143 75 237 103 333 99 34 -1 82 -53 82 -88 0 -89 -148 -210
-348 -283 -85 -31 -199 -60 -235 -60 -14 0 -42 -22 -79 -64 -81 -91 -108 -133
-108 -173 0 -29 5 -36 34 -48 68 -29 179 6 436 136 162 82 241 135 453 303 70
55 169 133 219 173 105 82 216 143 262 143 77 0 144 -90 132 -177 -15 -112
-61 -174 -266 -354 -150 -132 -175 -162 -168 -195 6 -27 67 -21 142 14 61 29
249 159 338 233 55 46 129 82 161 77 19 -3 22 -10 25 -51 2 -26 -6 -80 -17
-121 -44 -159 -39 -176 45 -176 118 0 310 90 501 234 105 80 108 83 133 151
72 191 182 345 247 345 37 0 63 -27 63 -64 0 -63 -78 -188 -198 -318 -62 -66
-63 -88 -5 -88 29 0 54 11 106 47 l68 47 20 -21 21 -20 -59 -48 c-32 -27 -81
-59 -110 -72 -45 -21 -57 -23 -92 -13 -22 6 -49 22 -59 35 -11 14 -24 25 -29
25 -5 0 -27 -18 -48 -41 -186 -191 -544 -331 -663 -259 -55 34 -74 75 -69 150
3 36 8 75 12 88 12 36 -10 27 -108 -47 -198 -148 -315 -210 -396 -211 -37 0
-49 5 -81 38 -48 48 -64 101 -50 171 18 97 68 163 229 303 140 121 191 179
191 216 0 22 -3 24 -31 18 -49 -10 -125 -57 -249 -157 -207 -166 -463 -354
-555 -406 -101 -57 -263 -133 -351 -164 -33 -11 -93 -23 -134 -26 -65 -4 -81
-1 -120 19 -78 40 -100 113 -76 256 6 37 5 52 -3 52 -6 0 -50 -32 -97 -70
-268 -219 -460 -301 -555 -237 -74 49 -88 150 -36 253 28 56 133 178 261 304
47 46 86 90 86 97 0 9 -15 13 -46 13 -43 0 -54 -6 -170 -97 -67 -54 -203 -154
-300 -223 -98 -69 -234 -167 -303 -219 -230 -171 -316 -195 -397 -110 -26 27
-29 37 -28 95 1 47 -3 64 -12 64 -8 0 -53 -29 -101 -65 -145 -107 -273 -158
-354 -140 -39 9 -89 52 -105 92 -19 44 -18 130 3 192 16 52 12 73 -11 56 -8
-6 -62 -49 -120 -96 -231 -186 -420 -261 -500 -198 -88 69 -71 210 41 330 26
28 102 98 169 155 134 114 174 156 174 185 0 15 -7 19 -38 19 -117 0 -252 -83
-547 -336 -71 -61 -164 -144 -205 -183 -88 -85 -207 -168 -254 -176 -99 -19
-122 19 -60 100 32 43 234 266 451 498 40 43 73 85 73 93 0 47 -177 -27 -330
-137 -150 -109 -388 -259 -464 -294 -115 -52 -249 -94 -345 -107 l-87 -12 -54
-73 c-119 -164 -433 -428 -599 -506 -82 -38 -86 -39 -175 -35 -132 6 -209 52
-256 153 -17 36 -21 111 -9 155 29 100 202 148 274 76 80 -80 60 -213 -40
-260 -44 -21 -44 -32 -1 -45 119 -32 268 47 430 229 26 30 186 313 186 330 0
5 -35 16 -77 25 -147 33 -290 94 -427 182 -38 24 -74 42 -80 40 -6 -3 -60 -41
-120 -86 -242 -181 -466 -289 -706 -342 -149 -33 -342 -33 -455 -1 -170 49
-314 150 -376 264 -31 58 -34 70 -34 149 0 78 3 90 30 135 41 65 107 106 173
106 75 0 128 -35 167 -111 47 -93 -37 -211 -149 -211 -37 0 -106 28 -106 42 0
4 -7 8 -16 8 -14 0 -15 -7 -11 -37 17 -104 173 -223 352 -269 50 -12 107 -17
200 -17 208 1 354 40 595 159 188 94 409 232 410 258 0 4 -36 47 -81 94 -144
153 -244 317 -295 489 -35 116 -45 340 -20 447 37 155 113 295 209 383 297
270 759 102 1000 -365 30 -59 63 -133 73 -164 10 -32 23 -58 30 -58 7 0 75 59
151 132 300 287 637 583 818 720 256 192 600 382 835 459 132 44 153 46 197
19z"/>
<path d="M4515 3666 c-394 -190 -778 -478 -1378 -1035 l-189 -174 6 -41 c26
-183 14 -347 -39 -529 -14 -48 -25 -92 -25 -97 0 -29 33 2 107 98 410 539
1150 1310 1620 1691 118 95 134 141 50 141 -30 -1 -74 -16 -152 -54z m176 15
c-6 -10 -61 -61 -124 -113 -486 -408 -1153 -1105 -1555 -1625 -48 -61 -88
-111 -89 -110 -1 1 7 34 18 72 47 169 59 369 29 498 l-8 37 182 167 c600 555
962 830 1350 1025 100 50 143 66 179 67 24 1 26 -1 18 -18z"/>
<path d="M2060 3074 c-167 -45 -315 -212 -355 -402 -20 -94 -19 -249 4 -357
24 -118 68 -223 141 -332 58 -89 193 -243 212 -243 17 0 589 522 732 668 55
57 58 62 52 96 -10 53 -98 221 -156 298 -108 143 -237 240 -361 273 -69 19
-198 18 -269 -1z m287 -25 c80 -27 134 -61 208 -131 112 -104 232 -284 266
-398 l12 -41 -49 -50 c-126 -130 -706 -659 -722 -659 -14 0 -93 89 -161 180
-259 347 -262 782 -7 1006 129 113 295 148 453 93z"/>
<path d="M2635 2176 c-121 -123 -286 -278 -367 -346 -82 -68 -148 -130 -148
-138 0 -31 394 -192 512 -208 l44 -6 46 98 c93 199 149 398 163 586 9 106 -2
238 -18 237 -7 0 -111 -101 -232 -223z m232 42 c-8 -218 -47 -373 -153 -610
-39 -88 -52 -108 -69 -108 -55 0 -421 138 -486 184 -14 10 -4 22 72 85 142
117 332 295 484 454 77 80 144 146 149 146 5 1 6 -65 3 -151z"/>
<path d="M5690 1911 c-122 -38 -422 -270 -570 -442 -70 -82 -92 -121 -88 -157
3 -26 5 -27 63 -27 47 0 72 7 115 29 100 52 329 223 461 344 103 95 162 207
129 247 -13 16 -67 19 -110 6z m98 -39 c11 -74 -182 -264 -471 -466 -127 -88
-185 -113 -254 -107 -17 1 -16 26 2 62 54 103 347 370 525 478 72 44 117 61
160 58 28 -2 36 -7 38 -25z"/>
<path d="M7764 1895 c-27 -14 -101 -63 -164 -110 -63 -46 -118 -85 -122 -85
-16 0 -7 -30 8 -30 28 0 196 71 251 106 63 40 133 108 133 129 0 23 -49 18
-106 -10z m23 -49 c-52 -48 -160 -111 -227 -131 -29 -9 114 101 197 151 84 50
97 41 30 -20z"/>
<path d="M21994 3336 c-208 -65 -594 -378 -1155 -936 -200 -200 -274 -267
-340 -308 -46 -29 -160 -120 -254 -202 -180 -158 -325 -268 -490 -371 -55 -34
-139 -88 -186 -119 -118 -79 -224 -111 -236 -73 -2 6 49 56 114 111 252 213
313 297 313 433 0 87 -18 121 -76 145 -99 41 -241 1 -429 -121 l-81 -52 0 52
c-1 59 -21 96 -68 124 -69 41 -162 33 -280 -26 -74 -36 -189 -108 -246 -153
l-36 -28 4 68 c7 118 -36 170 -142 170 -100 0 -216 -60 -406 -209 -140 -111
-241 -177 -313 -206 -94 -37 -106 -31 -57 30 64 81 94 150 98 226 5 81 -14
124 -63 145 -137 57 -470 -65 -686 -252 -49 -43 -147 -118 -213 -164 -11 -8
-63 -48 -115 -88 -174 -136 -352 -242 -404 -242 -28 0 -31 27 -7 57 12 15 187
205 388 420 l367 393 151 0 152 0 6 31 c3 17 6 44 6 60 l0 29 -121 0 -121 0
51 58 c120 134 203 233 216 259 36 69 5 115 -64 94 -59 -18 -207 -137 -345
-278 l-130 -133 -97 0 c-107 0 -103 3 -114 -74 l-7 -46 58 0 59 -1 -75 -39
c-53 -27 -140 -93 -295 -225 -301 -256 -525 -413 -767 -539 -71 -36 -137 -66
-148 -66 -28 0 -35 24 -16 52 9 13 184 202 388 421 l372 397 152 0 151 0 7 38
c14 87 21 82 -115 82 l-120 0 23 28 c13 16 68 79 123 141 55 61 108 126 118
144 39 72 9 120 -62 98 -60 -18 -208 -137 -346 -278 l-130 -133 -97 0 c-53 0
-99 -4 -102 -8 -3 -5 -8 -32 -12 -60 l-7 -52 59 0 59 -1 -80 -42 c-58 -30
-144 -96 -313 -240 -134 -114 -251 -206 -277 -217 -49 -21 -174 -54 -180 -48
-3 2 16 31 40 64 67 88 89 139 93 215 8 125 -40 165 -183 156 -194 -12 -456
-147 -623 -321 -111 -116 -145 -187 -149 -316 -3 -84 -1 -99 19 -135 59 -102
194 -111 363 -24 90 46 244 159 302 222 l42 45 43 -15 c57 -20 107 -12 203 32
43 19 83 35 89 35 6 0 40 24 76 52 49 40 59 45 42 23 -103 -133 -136 -213
-130 -311 4 -68 21 -100 72 -138 41 -31 134 -28 207 5 134 63 520 312 652 421
26 22 47 37 47 34 0 -3 -18 -29 -40 -58 -94 -124 -124 -250 -78 -337 34 -66
67 -86 141 -86 52 0 76 7 147 41 89 43 196 116 317 215 39 32 73 59 75 59 2 0
2 -35 0 -79 -6 -128 38 -199 137 -217 122 -23 345 86 526 256 l70 67 35 -14
c43 -18 116 -10 174 19 98 49 300 176 411 258 121 90 234 155 255 148 19 -6
-59 -98 -224 -265 -190 -193 -265 -298 -279 -388 -5 -29 -2 -44 10 -57 54 -60
227 38 443 250 178 176 428 364 574 433 70 33 96 37 96 12 -1 -27 -45 -81
-226 -272 -162 -170 -273 -315 -288 -376 -5 -19 -2 -33 10 -46 55 -61 220 32
454 257 238 229 360 323 506 390 73 34 164 55 164 38 0 -20 -65 -87 -158 -160
-209 -168 -274 -255 -275 -374 -1 -124 86 -191 221 -170 67 11 170 58 237 109
44 34 376 260 418 286 9 6 44 32 78 59 71 57 71 56 5 -42 -69 -106 -99 -183
-100 -262 -1 -76 17 -117 66 -152 27 -19 46 -23 103 -23 60 0 81 5 148 37 90
43 222 132 323 217 l71 59 -9 -51 c-10 -63 5 -152 31 -187 63 -85 210 -89 405
-11 81 32 158 76 406 230 143 89 205 133 425 300 71 54 219 141 241 141 14 0
-57 -68 -188 -182 -193 -167 -249 -251 -252 -378 -1 -80 12 -110 64 -139 76
-43 188 -22 321 58 53 32 51 30 -49 -71 l-103 -104 -102 -33 c-141 -46 -313
-121 -431 -188 -118 -67 -281 -187 -332 -246 -86 -99 -107 -209 -50 -266 24
-23 35 -26 115 -29 63 -3 107 1 148 13 180 52 430 239 740 552 l172 174 98 30
c195 62 488 235 655 387 56 52 78 132 38 140 -9 1 -81 -45 -160 -103 -80 -59
-182 -129 -227 -156 -89 -54 -292 -154 -298 -147 -3 2 105 119 238 259 352
370 417 447 417 495 0 53 -86 56 -187 7 -36 -18 -99 -68 -172 -137 -151 -142
-371 -331 -474 -408 -109 -81 -257 -152 -257 -123 0 19 51 72 174 179 172 151
241 223 266 278 57 132 21 235 -92 262 -91 21 -309 -89 -485 -244 -95 -85
-280 -210 -473 -321 -239 -137 -401 -198 -455 -169 -51 27 -42 53 59 170 60
68 74 80 110 85 202 32 429 135 519 234 68 76 71 165 8 208 -101 68 -392 -38
-659 -240 -31 -24 -93 -65 -137 -92 -43 -27 -118 -80 -165 -118 -168 -135
-326 -232 -412 -253 -74 -17 -24 69 183 316 67 80 167 201 223 270 129 160
236 261 296 280 73 24 306 141 446 225 447 268 783 547 875 725 47 91 23 187
-55 224 -41 19 -152 20 -212 2z m179 -10 c46 -19 87 -67 93 -108 16 -97 -119
-258 -411 -490 -263 -208 -708 -473 -923 -549 -73 -25 -170 -118 -326 -309
-69 -85 -179 -220 -245 -299 -192 -233 -218 -291 -128 -291 24 0 66 11 97 26
73 34 223 135 335 225 50 40 131 98 180 129 50 31 128 85 175 118 95 69 339
195 412 211 26 6 69 11 96 11 41 0 55 -5 81 -29 79 -74 -4 -193 -208 -296 -74
-37 -244 -91 -314 -100 -56 -7 -58 -9 -126 -87 -110 -126 -123 -175 -56 -204
71 -29 226 24 460 159 213 122 386 238 482 323 141 122 295 216 405 245 101
27 174 -28 172 -131 -1 -103 -41 -155 -282 -367 -143 -126 -182 -171 -182
-208 0 -48 157 15 297 121 108 81 340 282 471 407 121 115 186 155 268 165 35
4 45 1 50 -12 15 -40 -10 -69 -523 -610 -84 -89 -153 -167 -153 -175 0 -19 35
-9 151 43 130 58 282 150 441 269 118 87 133 96 136 77 5 -31 -19 -62 -96
-123 -202 -162 -428 -291 -608 -349 l-99 -31 -180 -182 c-248 -249 -474 -428
-637 -505 -143 -66 -267 -76 -326 -25 -23 20 -27 31 -27 77 0 47 5 61 45 116
114 164 422 350 779 473 l116 40 128 127 c116 116 144 152 117 152 -5 0 -47
-24 -92 -53 -160 -103 -259 -126 -332 -77 -61 42 -72 115 -32 212 33 81 87
148 191 236 132 113 245 223 245 238 0 22 -46 16 -103 -12 -83 -42 -152 -89
-292 -198 -231 -181 -627 -421 -776 -470 -274 -91 -400 4 -343 257 9 40 -10
34 -79 -27 -34 -29 -96 -78 -137 -108 -263 -191 -406 -217 -479 -87 -48 84 -9
201 131 396 92 128 78 136 -55 30 -130 -104 -612 -430 -672 -455 -83 -34 -142
-37 -195 -10 -52 27 -90 84 -90 138 0 88 88 202 270 350 204 165 226 238 61
196 -153 -39 -341 -172 -601 -427 -219 -213 -375 -308 -420 -254 -28 33 80
182 286 396 175 181 227 247 222 286 -3 26 -6 28 -43 26 -22 -2 -72 -19 -112
-38 -139 -69 -443 -303 -572 -441 -75 -80 -223 -197 -286 -225 -79 -36 -120
-20 -106 41 23 94 77 167 276 370 180 183 235 250 235 283 0 17 -5 19 -40 14
-51 -7 -141 -60 -296 -175 -138 -102 -243 -168 -359 -224 -86 -42 -125 -45
-192 -17 -32 13 -33 12 -73 -33 -53 -61 -152 -139 -251 -199 -273 -164 -443
-93 -405 169 6 42 5 52 -7 52 -8 0 -56 -34 -108 -76 -201 -162 -361 -253 -445
-254 -80 0 -144 71 -144 162 0 94 57 198 183 334 56 60 69 84 46 84 -6 0 -61
-41 -121 -91 -119 -98 -367 -273 -467 -329 -34 -19 -90 -53 -124 -74 -179
-114 -285 -112 -345 4 -18 36 -22 54 -17 90 13 93 75 198 187 315 65 69 81 95
57 95 -6 0 -57 -39 -115 -86 -79 -65 -128 -96 -205 -131 -55 -25 -118 -47
-140 -50 -39 -6 -99 12 -99 28 0 20 -30 7 -57 -23 -143 -161 -384 -307 -507
-308 -69 0 -120 31 -151 94 -29 58 -31 90 -10 171 22 84 60 148 136 229 161
173 459 326 635 327 83 1 117 -18 140 -77 15 -40 16 -53 5 -93 -15 -56 -48
-115 -107 -186 -53 -66 -56 -85 -13 -85 42 0 162 36 219 66 25 13 145 109 268
213 171 146 243 201 312 237 50 26 90 53 90 61 0 9 -18 13 -65 13 -70 0 -73 3
-59 58 6 21 11 22 104 22 l97 0 124 128 c228 236 399 347 399 259 0 -31 -47
-95 -152 -209 -110 -119 -138 -153 -138 -167 0 -7 40 -11 125 -11 l125 0 0
-24 c0 -56 -1 -56 -159 -56 l-147 0 -340 -361 c-186 -199 -363 -389 -391 -422
-54 -62 -65 -95 -38 -117 67 -56 546 242 970 603 172 147 227 187 303 225 50
26 92 52 92 59 0 9 -20 13 -70 13 -38 0 -70 4 -70 9 0 5 3 23 6 40 l7 31 96 0
97 0 130 132 c238 242 394 343 394 254 0 -25 -65 -118 -129 -186 -85 -89 -161
-178 -161 -189 0 -8 39 -11 128 -11 l129 0 -6 -37 -6 -38 -152 -5 -152 -5
-375 -400 c-207 -220 -383 -415 -393 -433 -39 -71 27 -87 140 -34 85 40 177
102 374 255 89 69 179 137 201 151 22 14 43 30 47 36 16 26 175 135 255 175
133 66 225 96 316 102 103 7 135 -7 160 -73 15 -40 16 -53 5 -93 -13 -50 -65
-142 -118 -207 -46 -57 -44 -68 15 -62 91 9 204 76 468 276 197 150 330 198
401 146 51 -38 65 -91 49 -186 -6 -33 -5 -48 3 -48 6 0 46 26 89 58 151 112
313 192 389 192 38 0 104 -35 128 -68 15 -21 20 -41 18 -89 0 -35 2 -63 6 -63
5 0 46 25 92 56 46 32 122 75 167 97 70 34 96 41 160 44 65 4 82 1 110 -17
103 -64 69 -230 -75 -372 -37 -37 -120 -111 -183 -165 -84 -72 -116 -105 -118
-124 -9 -74 155 -32 313 80 33 23 103 69 155 103 177 113 316 218 476 358 87
77 199 166 248 198 70 45 153 120 395 357 383 376 550 527 766 692 162 122
262 179 370 208 65 18 98 18 138 1z"/>
<path d="M22001 3230 c-77 -28 -200 -114 -326 -228 -128 -115 -715 -710 -715
-723 0 -5 4 -9 10 -9 13 0 373 207 530 304 412 257 754 597 665 663 -27 19
-101 16 -164 -7z m151 -17 c48 -58 -290 -382 -623 -596 -75 -48 -403 -242
-469 -277 -14 -7 94 110 240 260 436 450 599 585 752 624 57 14 81 12 100 -11z"/>
<path d="M14945 1951 c-73 -18 -161 -78 -301 -206 -102 -93 -258 -263 -302
-331 -41 -61 -44 -111 -6 -120 92 -23 315 97 474 257 148 148 230 273 230 349
0 34 -4 42 -26 50 -28 11 -27 11 -69 1z m69 -30 c17 -19 17 -22 -9 -78 -36
-80 -117 -183 -227 -289 -130 -125 -291 -225 -387 -240 -58 -9 -76 7 -54 50
41 82 288 344 433 459 73 58 179 117 211 117 9 0 24 -9 33 -19z"/>
<path d="M17514 1942 c-94 -33 -252 -162 -432 -354 -138 -147 -182 -211 -182
-262 0 -19 7 -27 26 -32 44 -11 96 3 199 56 117 58 234 149 321 246 131 148
184 236 184 304 0 34 -4 42 -26 50 -32 12 -29 13 -90 -8z m91 -18 c9 -9 14
-23 11 -31 -3 -8 -6 -20 -6 -27 0 -22 -83 -142 -160 -231 -101 -117 -212 -205
-344 -271 -83 -42 -118 -54 -145 -52 -56 5 -52 32 18 124 73 98 333 354 422
417 70 49 143 86 171 87 9 0 24 -7 33 -16z"/>
<path d="M21458 1902 c-54 -25 -307 -205 -307 -219 -1 -20 23 -16 107 17 98
38 185 89 240 143 69 68 48 99 -40 59z m10 -56 c-52 -48 -164 -112 -228 -131
-33 -9 152 128 214 160 74 37 77 30 14 -29z"/>
<path d="M21850 925 c-156 -64 -303 -147 -450 -253 -129 -94 -190 -162 -190
-213 0 -36 25 -43 106 -30 77 12 141 42 226 106 86 65 438 396 438 413 0 20
-41 13 -130 -23z m-7 -88 c-261 -249 -366 -335 -452 -367 -66 -26 -133 -35
-155 -23 -43 24 91 156 284 281 131 85 345 191 428 211 2 1 -45 -45 -105 -102z"/>
</g>
</svg>
