<svg id="svg" version="1.1" xmlns="http://www.w3.org/2000/svg" xmlns:xlink="http://www.w3.org/1999/xlink" width="400" height="75.94721157939549" viewBox="0, 0, 400,75.94721157939549"><g id="svgg"><path id="path0" d="M225.583 8.603 C 222.445 9.053,221.228 9.270,219.134 9.753 C 213.197 11.122,207.170 13.826,204.500 16.320 C 204.179 16.619,203.630 17.049,203.280 17.275 C 200.908 18.805,197.624 23.110,196.392 26.307 C 196.156 26.917,195.863 27.646,195.739 27.927 C 194.432 30.893,195.304 35.146,197.708 37.534 C 203.023 42.811,216.803 41.303,224.298 34.625 C 228.024 31.304,229.772 29.094,230.530 26.744 C 233.608 17.201,221.990 14.319,211.212 21.953 C 206.961 24.964,201.076 31.786,201.435 33.286 C 201.877 35.137,203.367 34.428,205.732 31.240 C 212.067 22.700,222.920 17.890,227.250 21.701 C 229.713 23.870,227.107 28.546,221.333 32.317 C 220.829 32.646,220.379 32.955,220.333 33.003 C 219.322 34.067,212.952 36.666,209.667 37.355 C 202.849 38.786,197.897 36.045,198.214 31.017 C 199.073 17.371,224.029 6.871,241.333 12.876 C 244.170 13.860,247.925 15.845,247.550 16.163 C 247.477 16.225,246.592 16.903,245.583 17.668 C 244.575 18.434,243.367 19.384,242.899 19.780 C 242.430 20.176,241.989 20.500,241.918 20.500 C 241.398 20.500,231.757 30.072,229.749 32.582 C 229.016 33.498,227.703 34.998,226.831 35.915 C 224.206 38.677,222.063 41.061,221.859 41.448 C 221.508 42.112,215.434 47.731,213.483 49.197 C 207.662 53.569,198.717 55.299,193.613 53.040 L 192.643 52.610 193.159 52.206 C 194.398 51.237,194.813 48.595,193.897 47.507 C 191.872 45.101,187.850 46.843,187.836 50.132 C 187.798 58.629,205.631 58.977,218.038 50.722 C 219.255 49.912,220.325 49.219,220.417 49.182 C 220.777 49.035,223.150 47.152,224.346 46.065 C 225.464 45.048,226.437 44.032,228.670 41.545 C 229.120 41.044,232.871 36.169,233.420 35.372 C 233.437 35.347,233.780 35.477,234.184 35.660 C 234.790 35.935,235.279 35.993,237.022 35.996 C 239.110 36.000,239.131 36.004,239.415 36.438 C 240.425 37.979,239.365 41.348,236.705 45.046 L 235.773 46.343 235.401 45.463 C 234.161 42.525,230.406 42.022,227.139 44.354 C 226.834 44.572,226.379 44.862,226.129 45.000 C 224.554 45.863,221.951 48.696,221.267 50.291 C 217.378 59.363,234.495 57.270,240.630 47.923 C 243.026 44.274,243.797 38.732,242.316 35.804 L 242.006 35.192 243.128 34.828 C 246.792 33.639,250.152 31.172,251.999 28.314 C 253.884 25.398,254.001 20.498,252.255 17.603 C 251.560 16.449,251.316 16.754,254.417 14.893 C 255.608 14.177,256.808 13.411,257.082 13.190 L 257.580 12.787 257.696 13.467 C 257.815 14.162,258.261 15.000,258.512 15.000 C 258.589 15.000,258.928 15.188,259.266 15.417 C 261.385 16.855,263.922 14.681,262.920 12.285 C 261.955 9.974,258.414 9.308,255.743 10.935 C 255.197 11.268,254.412 11.730,254.000 11.963 C 253.264 12.379,250.687 13.984,250.138 14.370 C 249.905 14.533,249.738 14.455,249.136 13.899 C 246.669 11.625,242.944 10.003,238.020 9.058 C 235.833 8.639,227.467 8.332,225.583 8.603 M82.166 9.625 C 82.166 9.694,81.926 9.759,81.632 9.769 C 81.338 9.780,81.071 9.870,81.038 9.968 C 81.005 10.067,80.871 10.107,80.739 10.056 C 80.608 10.006,80.500 10.045,80.500 10.144 C 80.500 10.242,80.387 10.280,80.250 10.227 C 80.112 10.174,80.000 10.212,80.000 10.310 C 80.000 10.409,79.887 10.446,79.750 10.394 C 79.612 10.341,79.500 10.378,79.500 10.477 C 79.500 10.576,79.387 10.613,79.250 10.560 C 79.112 10.508,79.000 10.539,79.000 10.630 C 79.000 10.722,78.906 10.793,78.792 10.789 C 78.256 10.769,77.989 10.848,78.082 10.998 C 78.143 11.096,78.068 11.118,77.898 11.053 C 77.689 10.973,77.649 11.002,77.748 11.164 C 77.843 11.317,77.821 11.345,77.675 11.255 C 77.428 11.102,75.804 11.818,75.931 12.024 C 75.979 12.100,75.889 12.113,75.731 12.053 C 75.521 11.972,75.482 12.002,75.583 12.167 C 75.684 12.330,75.647 12.361,75.444 12.284 C 75.291 12.225,75.167 12.254,75.167 12.348 C 75.167 12.443,75.092 12.473,75.000 12.417 C 74.908 12.360,74.833 12.406,74.833 12.518 C 74.833 12.630,74.784 12.673,74.724 12.613 C 74.583 12.472,71.984 13.852,71.879 14.124 C 71.835 14.238,71.734 14.292,71.655 14.243 C 71.577 14.194,71.375 14.288,71.207 14.452 C 71.040 14.616,70.763 14.775,70.592 14.805 C 70.182 14.877,69.500 15.330,69.500 15.529 C 69.500 15.616,69.435 15.646,69.356 15.597 C 69.201 15.502,68.405 16.055,65.964 17.953 C 65.113 18.615,63.817 19.621,63.083 20.190 C 60.322 22.332,56.167 26.145,56.167 26.538 C 56.167 26.609,56.073 26.667,55.958 26.668 C 55.844 26.669,55.225 27.161,54.583 27.762 C 53.942 28.363,53.522 28.801,53.651 28.735 C 53.804 28.656,53.844 28.681,53.766 28.808 C 53.701 28.913,53.522 29.000,53.368 29.000 C 53.215 29.000,52.394 29.692,51.545 30.538 C 50.695 31.384,50.000 31.980,50.000 31.862 C 50.000 31.744,49.926 31.693,49.835 31.749 C 49.743 31.806,49.712 31.744,49.764 31.607 C 49.876 31.315,48.697 28.501,48.418 28.394 C 48.310 28.353,48.222 28.220,48.222 28.099 C 48.222 27.790,47.507 26.667,47.310 26.667 C 47.220 26.667,47.190 26.596,47.244 26.510 C 47.297 26.424,47.228 26.291,47.090 26.214 C 46.953 26.137,46.648 25.813,46.413 25.495 C 46.178 25.177,45.899 24.917,45.792 24.917 C 45.686 24.917,45.556 24.738,45.505 24.520 C 45.289 23.604,40.950 20.677,40.128 20.892 C 39.950 20.938,39.876 20.899,39.941 20.794 C 40.011 20.681,39.893 20.648,39.613 20.702 C 39.343 20.753,39.216 20.721,39.281 20.617 C 39.348 20.509,39.196 20.486,38.859 20.553 C 38.570 20.611,38.333 20.600,38.333 20.529 C 38.333 20.458,37.553 20.404,36.599 20.408 C 35.646 20.413,34.905 20.481,34.953 20.559 C 35.002 20.638,34.807 20.651,34.521 20.588 C 34.212 20.520,34.000 20.541,34.000 20.638 C 34.000 20.728,33.861 20.766,33.692 20.721 C 33.522 20.677,33.268 20.756,33.128 20.896 C 32.988 21.036,32.827 21.104,32.770 21.048 C 32.713 20.991,32.667 21.036,32.667 21.149 C 32.667 21.261,32.601 21.312,32.520 21.262 C 32.439 21.212,32.098 21.358,31.762 21.586 C 31.427 21.814,31.096 22.000,31.028 22.000 C 30.361 22.000,27.438 26.328,27.756 26.843 C 27.809 26.930,27.766 27.000,27.659 27.000 C 27.552 27.000,27.508 27.113,27.560 27.250 C 27.613 27.388,27.576 27.500,27.477 27.500 C 27.378 27.500,27.341 27.613,27.394 27.750 C 27.446 27.888,27.408 28.000,27.309 28.000 C 27.209 28.000,27.167 28.150,27.215 28.333 C 27.263 28.517,27.228 28.667,27.138 28.667 C 27.041 28.667,27.020 28.879,27.088 29.188 C 27.172 29.568,27.149 29.676,27.005 29.586 C 26.858 29.495,26.838 29.665,26.926 30.256 C 27.012 30.829,26.993 31.015,26.856 30.931 C 26.719 30.846,26.667 31.303,26.667 32.573 C 26.667 33.892,26.719 34.323,26.875 34.292 C 26.990 34.269,27.058 34.362,27.026 34.500 C 26.814 35.424,26.795 35.877,26.971 35.768 C 27.106 35.684,27.131 35.805,27.055 36.184 C 26.976 36.576,27.001 36.686,27.147 36.595 C 27.293 36.505,27.316 36.596,27.232 36.928 C 27.144 37.280,27.168 37.352,27.337 37.248 C 27.500 37.147,27.526 37.191,27.440 37.415 C 27.305 37.767,27.781 39.333,28.023 39.333 C 28.113 39.333,28.140 39.408,28.083 39.500 C 27.860 39.862,30.111 43.686,31.076 44.583 C 31.273 44.767,31.865 45.377,32.391 45.939 L 33.347 46.961 32.549 47.547 C 32.109 47.869,31.412 48.315,31.000 48.539 C 28.688 49.791,27.880 50.281,27.554 50.632 C 27.354 50.847,27.129 51.018,27.054 51.013 C 26.763 50.994,26.333 51.197,26.333 51.354 C 26.333 51.445,26.258 51.473,26.167 51.417 C 26.075 51.360,26.000 51.398,26.000 51.500 C 26.000 51.602,25.925 51.640,25.833 51.583 C 25.742 51.527,25.667 51.564,25.667 51.667 C 25.667 51.769,25.597 51.810,25.512 51.758 C 25.328 51.644,24.500 51.996,24.500 52.188 C 24.500 52.262,24.395 52.283,24.267 52.233 C 24.139 52.184,23.935 52.250,23.814 52.380 C 23.692 52.510,23.448 52.578,23.271 52.532 C 23.069 52.479,22.989 52.514,23.058 52.625 C 23.128 52.739,23.038 52.768,22.808 52.708 C 22.577 52.648,22.487 52.678,22.558 52.792 C 22.628 52.905,22.538 52.935,22.308 52.875 C 22.055 52.809,21.985 52.840,22.071 52.980 C 22.161 53.126,22.071 53.149,21.739 53.066 C 21.409 52.983,21.317 53.006,21.406 53.149 C 21.494 53.292,21.403 53.315,21.072 53.232 C 20.753 53.152,20.652 53.175,20.733 53.307 C 20.815 53.439,20.692 53.463,20.316 53.388 C 19.918 53.309,19.814 53.333,19.907 53.485 C 20.002 53.638,19.879 53.659,19.409 53.571 C 19.016 53.497,18.822 53.514,18.886 53.617 C 18.949 53.719,18.374 53.774,17.343 53.765 C 16.439 53.757,15.740 53.684,15.789 53.604 C 15.838 53.524,15.606 53.490,15.273 53.529 C 14.939 53.568,14.667 53.531,14.667 53.447 C 14.667 53.363,14.479 53.330,14.250 53.374 C 14.021 53.418,13.833 53.407,13.833 53.349 C 13.833 53.292,13.440 53.107,12.958 52.938 C 11.798 52.531,10.414 51.680,9.542 50.838 C 8.637 49.965,8.649 49.905,9.722 49.972 C 11.495 50.083,13.326 48.966,13.122 47.899 C 13.081 47.679,13.111 47.500,13.190 47.500 C 13.269 47.500,13.333 47.233,13.333 46.907 C 13.333 46.503,13.272 46.351,13.142 46.432 C 13.008 46.515,12.984 46.419,13.063 46.107 C 13.639 43.812,8.803 42.552,6.777 44.469 C 6.228 44.988,5.779 45.777,5.911 45.991 C 5.961 46.072,5.908 46.172,5.793 46.214 C 5.627 46.274,5.630 46.369,5.808 46.669 C 6.006 47.003,6.001 47.036,5.767 46.946 C 5.538 46.858,5.500 47.009,5.500 48.005 C 5.500 48.999,5.542 49.167,5.792 49.169 C 6.034 49.171,6.042 49.198,5.841 49.325 C 4.360 50.262,10.411 55.954,12.349 55.448 C 12.545 55.396,12.625 55.432,12.559 55.540 C 12.489 55.652,12.607 55.685,12.887 55.632 C 13.154 55.581,13.283 55.613,13.220 55.715 C 13.157 55.817,13.286 55.849,13.554 55.798 C 13.823 55.747,13.950 55.779,13.886 55.883 C 13.817 55.994,14.108 56.014,14.736 55.940 C 15.367 55.866,15.654 55.885,15.585 55.997 C 15.523 56.098,15.690 56.167,16.000 56.167 C 16.352 56.167,16.481 56.104,16.400 55.973 C 16.311 55.829,16.690 55.806,17.898 55.886 C 19.042 55.961,19.482 55.939,19.403 55.811 C 19.325 55.686,19.501 55.666,19.979 55.746 C 20.383 55.815,20.667 55.797,20.667 55.704 C 20.667 55.617,20.854 55.582,21.083 55.626 C 21.313 55.670,21.500 55.629,21.500 55.535 C 21.500 55.441,21.650 55.404,21.833 55.452 C 22.028 55.503,22.167 55.457,22.167 55.342 C 22.167 55.220,22.295 55.185,22.500 55.250 C 22.687 55.309,22.833 55.280,22.833 55.183 C 22.833 55.088,22.946 55.054,23.083 55.106 C 23.221 55.159,23.333 55.111,23.333 55.000 C 23.333 54.880,23.446 54.841,23.609 54.903 C 23.985 55.048,25.032 54.687,24.892 54.461 C 24.827 54.354,24.860 54.330,24.976 54.402 C 25.248 54.570,25.862 54.347,25.727 54.129 C 25.658 54.018,25.693 53.997,25.818 54.074 C 26.056 54.221,27.033 53.855,26.914 53.663 C 26.870 53.590,26.982 53.570,27.164 53.618 C 27.374 53.673,27.534 53.606,27.599 53.437 C 27.655 53.289,27.769 53.210,27.851 53.261 C 27.933 53.312,28.000 53.269,28.000 53.167 C 28.000 53.064,28.075 53.027,28.167 53.083 C 28.258 53.140,28.333 53.102,28.333 53.000 C 28.333 52.898,28.399 52.854,28.479 52.904 C 28.647 53.007,31.326 51.443,31.600 51.081 C 31.701 50.948,31.816 50.871,31.856 50.911 C 31.896 50.951,32.648 50.435,33.527 49.764 L 35.125 48.544 36.021 49.102 C 36.514 49.409,37.010 49.627,37.123 49.586 C 37.236 49.545,37.311 49.592,37.290 49.690 C 37.218 50.009,39.841 51.256,40.014 50.984 C 40.135 50.792,40.162 50.800,40.164 51.024 C 40.167 51.318,40.600 51.561,40.848 51.407 C 40.932 51.356,41.000 51.385,41.000 51.472 C 41.000 51.740,41.869 51.878,42.023 51.635 C 42.127 51.471,42.162 51.489,42.164 51.708 C 42.167 52.042,42.596 52.106,42.723 51.792 C 42.773 51.667,42.812 51.701,42.820 51.875 C 42.834 52.176,43.333 52.298,43.333 52.000 C 43.333 51.908,43.406 51.833,43.495 51.833 C 43.584 51.833,43.613 51.946,43.560 52.083 C 43.500 52.242,43.563 52.333,43.732 52.333 C 43.879 52.333,44.000 52.402,44.000 52.487 C 44.000 52.683,42.203 55.825,41.875 56.202 C 41.738 56.359,41.672 56.607,41.728 56.752 C 41.787 56.906,41.760 56.974,41.665 56.915 C 41.574 56.859,41.500 56.990,41.500 57.205 C 41.500 57.450,41.217 57.875,40.750 58.333 C 40.338 58.738,40.000 58.979,40.000 58.868 C 40.000 58.757,40.075 58.667,40.167 58.667 C 40.258 58.667,40.333 58.582,40.333 58.480 C 40.333 58.351,40.254 58.358,40.081 58.502 C 39.942 58.617,39.849 58.832,39.873 58.981 C 39.897 59.131,39.819 59.230,39.696 59.204 C 39.569 59.178,39.525 59.238,39.592 59.347 C 39.672 59.478,39.586 59.501,39.313 59.424 C 39.041 59.347,38.988 59.361,39.143 59.469 C 39.427 59.665,38.039 60.665,37.125 60.923 C 37.056 60.942,36.962 60.977,36.917 61.000 C 36.871 61.023,36.777 61.058,36.708 61.077 C 36.640 61.096,36.463 61.166,36.317 61.231 C 36.170 61.296,35.982 61.334,35.900 61.315 C 35.817 61.296,35.614 61.340,35.447 61.412 C 34.799 61.694,34.796 61.220,35.438 60.325 C 37.062 58.065,35.907 55.500,33.267 55.500 C 32.471 55.500,31.407 55.926,31.012 56.403 C 30.771 56.692,30.431 56.590,30.605 56.280 C 30.674 56.158,30.628 56.165,30.484 56.299 C 30.297 56.473,30.294 56.539,30.468 56.647 C 30.640 56.753,30.643 56.870,30.482 57.223 C 30.263 57.704,30.076 57.786,29.944 57.458 C 29.883 57.308,29.856 57.305,29.846 57.448 C 29.839 57.558,29.905 57.691,29.992 57.745 C 30.079 57.799,30.108 58.200,30.056 58.637 C 29.938 59.631,30.430 60.872,31.261 61.677 C 31.576 61.982,31.833 62.334,31.833 62.459 C 31.833 62.584,31.908 62.640,32.000 62.583 C 32.092 62.527,32.167 62.564,32.167 62.667 C 32.167 62.769,32.242 62.807,32.333 62.750 C 32.425 62.693,32.500 62.731,32.500 62.833 C 32.500 62.936,32.575 62.973,32.667 62.917 C 32.758 62.860,32.833 62.883,32.833 62.967 C 32.833 63.051,33.020 63.085,33.248 63.041 C 33.528 62.988,33.696 63.049,33.765 63.230 C 33.822 63.377,33.920 63.466,33.983 63.427 C 34.047 63.388,34.910 63.335,35.902 63.309 C 37.175 63.275,37.729 63.199,37.787 63.048 C 37.831 62.931,37.935 62.877,38.017 62.927 C 38.100 62.978,38.167 62.936,38.167 62.833 C 38.167 62.731,38.242 62.693,38.333 62.750 C 38.425 62.807,38.500 62.769,38.500 62.667 C 38.500 62.564,38.575 62.527,38.667 62.583 C 38.758 62.640,38.833 62.623,38.833 62.545 C 38.833 62.468,38.999 62.392,39.202 62.376 C 39.860 62.327,43.568 59.554,44.424 58.471 C 44.695 58.129,44.994 57.845,45.088 57.841 C 45.379 57.828,48.383 54.778,49.000 53.868 C 49.321 53.395,49.675 53.007,49.786 53.004 C 49.898 53.002,49.946 52.887,49.894 52.750 C 49.827 52.577,49.905 52.500,50.149 52.500 C 50.342 52.500,50.500 52.575,50.500 52.667 C 50.500 52.758,50.688 52.833,50.917 52.833 C 51.198 52.833,51.333 52.741,51.333 52.550 C 51.333 52.330,51.378 52.311,51.533 52.467 C 51.767 52.701,52.333 52.735,52.333 52.516 C 52.333 52.433,52.483 52.404,52.667 52.452 C 52.850 52.500,53.000 52.457,53.000 52.358 C 53.000 52.259,53.112 52.220,53.250 52.273 C 53.415 52.336,53.504 52.264,53.513 52.059 C 53.521 51.884,53.563 51.840,53.610 51.958 C 53.734 52.266,53.998 52.211,54.013 51.875 C 54.021 51.701,54.060 51.667,54.110 51.792 C 54.234 52.099,54.498 52.045,54.513 51.708 C 54.521 51.534,54.560 51.501,54.610 51.625 C 54.735 51.934,55.000 51.877,55.003 51.542 C 55.005 51.306,55.034 51.295,55.154 51.485 C 55.278 51.681,55.388 51.685,55.816 51.507 C 56.098 51.390,56.289 51.229,56.239 51.149 C 56.190 51.069,56.259 51.046,56.393 51.097 C 56.621 51.185,57.493 50.825,57.901 50.475 C 58.266 50.162,61.190 48.333,61.325 48.333 C 61.402 48.333,61.706 48.108,62.000 47.833 C 62.294 47.558,62.625 47.333,62.736 47.333 C 62.966 47.333,66.186 45.069,66.372 44.777 C 66.440 44.670,66.496 44.642,66.497 44.713 C 66.502 44.920,67.500 44.344,67.500 44.135 C 67.500 44.030,67.547 43.991,67.604 44.049 C 67.662 44.106,67.943 44.036,68.229 43.892 C 68.683 43.664,68.638 43.745,67.875 44.529 C 67.394 45.023,67.000 45.478,67.000 45.540 C 67.000 45.602,66.625 46.004,66.167 46.433 C 65.708 46.862,65.333 47.273,65.333 47.347 C 65.333 47.421,64.921 47.871,64.417 48.348 C 63.913 48.825,63.500 49.359,63.500 49.534 C 63.500 49.709,63.438 49.814,63.361 49.767 C 63.179 49.654,61.570 51.292,61.718 51.440 C 61.781 51.503,61.620 51.683,61.362 51.840 C 60.194 52.551,59.421 54.617,60.109 55.188 C 60.386 55.418,62.333 55.522,62.333 55.307 C 62.333 55.247,62.465 55.232,62.625 55.273 C 63.397 55.472,67.963 51.884,67.537 51.413 C 67.471 51.340,67.515 51.337,67.635 51.406 C 67.781 51.490,68.249 51.135,69.030 50.349 C 69.677 49.698,70.378 49.072,70.587 48.958 C 70.796 48.844,71.706 48.144,72.609 47.403 C 74.694 45.691,75.992 44.809,77.384 44.158 C 79.260 43.280,79.203 43.608,77.183 45.305 C 76.166 46.161,75.333 46.929,75.333 47.014 C 75.333 47.098,75.233 47.167,75.110 47.167 C 74.563 47.167,72.368 49.818,72.601 50.196 C 72.678 50.320,72.643 50.338,72.497 50.248 C 72.337 50.149,72.306 50.188,72.383 50.389 C 72.442 50.542,72.409 50.667,72.310 50.667 C 72.212 50.667,72.174 50.779,72.227 50.917 C 72.280 51.054,72.245 51.167,72.150 51.167 C 72.053 51.167,72.024 51.313,72.083 51.500 C 72.144 51.691,72.113 51.833,72.011 51.833 C 71.258 51.833,72.055 54.668,72.983 55.288 C 73.567 55.679,75.667 55.857,75.667 55.516 C 75.667 55.433,75.817 55.404,76.000 55.452 C 76.183 55.500,76.333 55.457,76.333 55.358 C 76.333 55.259,76.446 55.220,76.583 55.273 C 76.721 55.326,76.833 55.282,76.833 55.175 C 76.833 55.068,76.900 55.022,76.982 55.072 C 77.220 55.220,79.018 54.331,78.893 54.128 C 78.825 54.018,78.861 53.997,78.985 54.074 C 79.223 54.221,80.552 53.377,82.276 51.986 C 82.931 51.457,83.513 51.068,83.567 51.123 C 83.749 51.304,83.670 51.500,83.417 51.500 C 83.220 51.500,83.167 51.733,83.167 52.593 C 83.167 53.194,83.231 53.647,83.309 53.598 C 83.388 53.550,83.423 53.677,83.387 53.880 C 83.306 54.339,83.837 55.219,84.430 55.607 C 84.890 55.909,88.089 56.112,87.913 55.828 C 87.869 55.756,87.978 55.736,88.156 55.782 C 88.774 55.944,92.565 53.773,93.286 52.845 C 93.454 52.629,93.490 52.722,93.495 53.385 C 93.498 53.827,93.432 54.144,93.348 54.092 C 93.264 54.041,93.218 54.201,93.245 54.450 C 93.298 54.929,94.086 55.736,94.345 55.576 C 94.430 55.523,94.500 55.564,94.500 55.667 C 94.500 55.769,94.575 55.807,94.667 55.750 C 94.758 55.693,94.833 55.708,94.833 55.782 C 94.833 55.856,95.354 55.921,95.990 55.926 C 96.626 55.931,97.117 55.887,97.080 55.829 C 97.044 55.770,97.231 55.722,97.495 55.722 C 98.052 55.722,99.441 54.923,100.849 53.792 C 101.391 53.356,101.877 53.000,101.928 53.000 C 102.063 53.000,105.301 50.674,105.364 50.531 C 105.393 50.465,105.829 50.118,106.333 49.760 C 106.837 49.402,107.380 48.953,107.538 48.763 C 107.696 48.572,107.828 48.478,107.830 48.552 C 107.834 48.707,109.333 47.665,109.333 47.507 C 109.333 47.451,109.482 47.393,109.664 47.379 C 109.845 47.366,110.764 46.739,111.705 45.986 L 113.417 44.617 112.042 46.020 C 111.285 46.792,110.667 47.516,110.667 47.628 C 110.667 47.741,110.608 47.833,110.536 47.833 C 109.915 47.833,108.095 50.413,108.524 50.685 C 108.700 50.797,108.685 50.829,108.458 50.831 C 108.123 50.834,108.066 51.098,108.375 51.223 C 108.499 51.273,108.466 51.312,108.292 51.320 C 107.974 51.335,107.901 51.586,108.167 51.750 C 108.258 51.807,108.333 52.261,108.333 52.760 C 108.333 53.259,108.258 53.667,108.167 53.667 C 107.875 53.667,107.987 54.265,108.387 54.850 C 108.600 55.162,108.897 55.407,109.047 55.395 C 109.197 55.382,109.304 55.457,109.285 55.561 C 109.264 55.674,109.468 55.740,109.792 55.725 C 110.090 55.712,110.333 55.768,110.333 55.850 C 110.333 55.933,110.638 56.000,111.010 56.000 C 111.479 56.000,111.650 55.941,111.567 55.807 C 111.482 55.669,111.601 55.645,111.991 55.723 C 112.709 55.867,114.312 55.194,116.231 53.943 C 117.027 53.424,117.738 53.000,117.811 53.000 C 117.885 53.000,118.257 52.712,118.639 52.359 C 119.021 52.006,119.333 51.757,119.333 51.805 C 119.333 51.852,119.519 51.717,119.746 51.504 C 120.291 50.992,120.417 51.291,120.279 52.769 C 120.209 53.516,120.233 53.812,120.357 53.735 C 120.471 53.665,120.500 53.739,120.436 53.938 C 120.172 54.771,121.628 55.933,122.675 55.723 C 123.065 55.645,123.185 55.669,123.099 55.807 C 123.017 55.941,123.187 56.000,123.657 56.000 C 124.048 56.000,124.333 55.921,124.333 55.812 C 124.333 55.686,124.555 55.660,125.012 55.733 C 125.452 55.803,125.655 55.782,125.587 55.673 C 125.521 55.566,125.676 55.544,126.018 55.612 C 126.376 55.683,126.516 55.660,126.442 55.542 C 126.372 55.428,126.462 55.398,126.692 55.458 C 126.960 55.529,127.018 55.497,126.917 55.334 C 126.827 55.188,126.847 55.155,126.976 55.235 C 127.229 55.391,127.866 55.188,127.744 54.990 C 127.692 54.906,127.762 54.880,127.899 54.933 C 128.171 55.037,132.667 52.945,132.667 52.713 C 132.667 52.635,132.811 52.560,132.986 52.547 C 133.452 52.512,134.680 51.656,134.555 51.454 C 134.492 51.352,134.530 51.332,134.648 51.405 C 134.828 51.517,135.812 50.904,136.250 50.408 C 136.418 50.218,136.789 49.937,141.833 46.173 C 143.346 45.045,144.658 44.038,144.750 43.936 C 144.955 43.707,145.570 43.585,145.438 43.799 C 145.385 43.884,144.223 44.909,142.854 46.076 C 140.092 48.433,138.955 49.761,139.458 50.042 C 139.527 50.081,139.496 50.092,139.390 50.067 C 139.104 50.000,138.933 50.855,139.199 51.023 C 139.363 51.128,139.347 51.162,139.131 51.164 C 138.803 51.167,138.736 53.120,139.030 54.117 C 139.251 54.868,140.258 55.722,140.771 55.593 C 140.993 55.537,141.167 55.568,141.167 55.663 C 141.167 55.757,141.509 55.833,141.927 55.833 C 142.440 55.833,142.649 55.773,142.572 55.649 C 142.495 55.524,142.575 55.501,142.818 55.579 C 143.466 55.784,145.251 54.792,149.089 52.089 C 149.438 51.844,149.575 52.106,149.539 52.947 C 149.484 54.211,150.670 55.893,151.415 55.607 C 151.553 55.554,151.667 55.583,151.667 55.672 C 151.667 55.761,152.192 55.833,152.833 55.833 C 153.515 55.833,154.000 55.763,154.000 55.663 C 154.000 55.566,154.176 55.538,154.417 55.598 C 154.684 55.665,154.833 55.633,154.833 55.507 C 154.833 55.387,154.962 55.352,155.167 55.417 C 155.354 55.476,155.500 55.447,155.500 55.350 C 155.500 55.255,155.612 55.220,155.750 55.273 C 155.887 55.326,156.000 55.305,156.000 55.226 C 156.000 55.148,156.200 55.072,156.444 55.058 C 157.060 55.022,158.510 54.318,158.385 54.115 C 158.328 54.023,158.365 54.000,158.469 54.064 C 158.819 54.280,160.917 52.976,162.476 51.574 C 163.253 50.875,163.389 50.807,163.526 51.052 C 163.711 51.382,164.103 51.423,164.223 51.125 C 164.273 51.001,164.312 51.034,164.320 51.208 C 164.336 51.551,164.694 51.585,165.191 51.292 C 165.473 51.125,165.559 51.125,165.619 51.292 C 165.772 51.715,167.140 51.355,167.782 50.723 C 167.953 50.554,168.484 50.091,168.963 49.693 C 169.623 49.144,169.833 48.859,169.833 48.514 C 169.833 48.005,169.110 47.188,168.924 47.487 C 168.785 47.713,168.213 47.722,168.139 47.500 C 168.108 47.408,167.633 47.651,167.083 48.039 L 166.083 48.744 167.182 47.414 C 168.348 46.003,168.938 45.167,168.769 45.167 C 168.713 45.167,168.824 45.010,169.015 44.818 C 169.222 44.611,169.330 44.340,169.281 44.151 C 169.230 43.955,169.265 43.874,169.373 43.941 C 169.489 44.013,169.510 43.896,169.434 43.594 C 169.359 43.296,169.380 43.176,169.493 43.246 C 169.604 43.314,169.667 43.074,169.667 42.583 C 169.667 42.119,169.601 41.854,169.502 41.915 C 169.407 41.974,169.380 41.907,169.437 41.757 C 169.576 41.396,169.165 40.901,168.976 41.200 C 168.874 41.361,168.838 41.342,168.836 41.125 C 168.834 40.891,168.686 40.833,168.083 40.833 C 167.481 40.833,167.333 40.891,167.331 41.125 C 167.329 41.374,167.305 41.380,167.167 41.167 C 167.049 40.985,167.004 40.976,167.003 41.135 C 167.001 41.255,166.936 41.313,166.858 41.265 C 166.669 41.148,166.185 41.695,165.396 42.917 C 165.041 43.467,164.691 43.942,164.620 43.974 C 164.393 44.074,163.651 45.672,163.754 45.840 C 163.808 45.928,163.782 46.000,163.694 46.000 C 163.432 46.000,163.314 46.526,163.521 46.775 C 163.677 46.963,163.657 46.986,163.421 46.895 C 163.177 46.802,163.148 46.846,163.249 47.162 C 163.331 47.421,163.311 47.506,163.185 47.428 C 163.083 47.365,163.000 47.407,163.000 47.522 C 163.000 47.636,162.625 48.076,162.167 48.500 C 161.708 48.924,161.333 49.241,161.333 49.204 C 161.333 49.123,159.979 50.155,159.750 50.411 C 159.658 50.513,159.302 50.769,158.958 50.979 C 158.615 51.189,158.333 51.429,158.333 51.514 C 158.333 51.598,158.277 51.648,158.208 51.625 C 157.945 51.539,155.510 52.715,155.612 52.880 C 155.673 52.978,155.637 53.001,155.529 52.935 C 155.288 52.786,153.982 53.170,154.097 53.356 C 154.144 53.432,153.943 53.447,153.649 53.388 C 153.266 53.312,153.149 53.336,153.234 53.474 C 153.310 53.597,153.225 53.667,153.000 53.667 C 152.806 53.667,152.693 53.592,152.750 53.500 C 152.807 53.408,152.781 53.333,152.694 53.333 C 152.607 53.333,152.507 53.040,152.473 52.681 C 152.439 52.322,152.462 52.060,152.525 52.099 C 152.692 52.202,152.880 51.210,152.737 50.978 C 152.655 50.847,152.687 50.826,152.834 50.917 C 153.003 51.021,153.029 50.936,152.949 50.538 C 152.883 50.205,152.917 50.000,153.046 49.957 C 153.201 49.905,153.199 49.787,153.039 49.436 C 152.895 49.119,152.883 48.886,152.999 48.668 C 153.392 47.934,152.975 47.333,152.071 47.333 C 151.639 47.333,151.499 47.404,151.497 47.625 C 151.495 47.877,151.471 47.882,151.318 47.667 C 151.192 47.488,151.118 47.473,151.060 47.616 C 151.015 47.725,150.880 47.777,150.761 47.731 C 150.641 47.685,150.421 47.769,150.273 47.918 C 150.124 48.066,149.938 48.148,149.859 48.099 C 149.780 48.050,149.541 48.195,149.329 48.422 C 149.116 48.648,148.854 48.833,148.747 48.833 C 148.475 48.833,147.973 49.418,148.120 49.564 C 148.186 49.630,148.130 49.643,147.995 49.593 C 147.850 49.539,147.359 49.836,146.797 50.318 C 146.273 50.767,145.280 51.492,144.589 51.929 C 143.898 52.367,143.333 52.791,143.333 52.872 C 143.333 52.953,143.258 52.973,143.167 52.917 C 143.075 52.860,143.000 52.874,143.000 52.948 C 143.000 53.023,142.812 53.094,142.583 53.107 C 142.042 53.139,142.056 52.945,142.625 52.497 C 145.369 50.341,148.698 46.625,148.733 45.677 C 148.744 45.377,148.824 45.238,148.958 45.289 C 149.093 45.341,149.167 45.211,149.167 44.925 C 149.167 44.671,149.095 44.525,149.000 44.583 C 148.897 44.647,148.833 44.360,148.833 43.833 C 148.833 43.307,148.897 43.020,149.000 43.083 C 149.312 43.276,149.168 42.575,148.848 42.344 C 148.673 42.218,148.569 42.014,148.616 41.891 C 148.664 41.768,148.461 41.442,148.167 41.167 C 147.635 40.670,147.167 40.514,147.167 40.833 C 147.167 40.925,146.829 41.000,146.417 41.000 C 146.004 41.000,145.667 40.925,145.667 40.833 C 145.667 40.582,145.057 40.634,144.782 40.909 C 144.649 41.042,144.493 41.104,144.437 41.048 C 144.380 40.991,144.333 41.036,144.333 41.149 C 144.333 41.261,144.258 41.307,144.167 41.250 C 144.075 41.193,144.000 41.226,144.000 41.323 C 144.000 41.421,143.944 41.491,143.875 41.480 C 143.576 41.433,143.372 41.522,143.012 41.858 C 142.435 42.396,141.181 43.333,141.039 43.333 C 140.970 43.333,140.454 43.735,139.892 44.225 C 137.895 45.966,133.223 49.500,132.918 49.500 C 132.850 49.500,132.445 49.757,132.018 50.070 C 131.591 50.384,130.268 51.100,129.079 51.661 C 127.890 52.223,126.892 52.754,126.861 52.842 C 126.830 52.930,126.736 52.960,126.652 52.908 C 126.569 52.856,126.500 52.891,126.500 52.985 C 126.500 53.079,126.388 53.113,126.250 53.060 C 126.112 53.008,126.000 53.039,126.000 53.130 C 126.000 53.222,125.906 53.293,125.792 53.289 C 125.210 53.267,124.823 53.349,124.902 53.476 C 124.950 53.554,124.794 53.581,124.554 53.535 C 124.237 53.475,124.152 53.508,124.243 53.656 C 124.435 53.966,123.650 53.810,123.264 53.461 C 122.866 53.103,123.006 52.741,123.960 51.663 C 124.327 51.249,124.655 50.768,124.689 50.593 C 124.722 50.419,125.065 50.110,125.449 49.907 C 125.834 49.704,126.096 49.485,126.033 49.420 C 125.969 49.356,126.209 49.358,126.566 49.425 C 127.029 49.511,127.182 49.493,127.099 49.359 C 127.018 49.228,127.143 49.204,127.518 49.279 C 127.936 49.362,128.022 49.338,127.915 49.164 C 127.814 49.000,127.856 48.973,128.082 49.060 C 128.429 49.193,130.882 48.428,131.233 48.077 C 131.358 47.952,131.507 47.896,131.563 47.952 C 131.620 48.009,131.667 47.964,131.667 47.851 C 131.667 47.739,131.742 47.693,131.833 47.750 C 131.925 47.807,132.000 47.761,132.000 47.649 C 132.000 47.536,132.047 47.491,132.104 47.549 C 132.240 47.684,133.167 47.206,133.167 47.001 C 133.167 46.915,133.268 46.883,133.391 46.930 C 134.079 47.194,136.226 44.734,135.844 44.121 C 135.663 43.832,135.671 43.799,135.900 43.887 C 136.117 43.970,136.167 43.866,136.167 43.328 C 136.167 42.810,136.103 42.666,135.875 42.664 C 135.648 42.662,135.633 42.630,135.809 42.518 C 136.106 42.331,135.674 41.633,135.099 41.371 C 134.464 41.081,132.328 41.125,132.443 41.425 C 132.547 41.696,132.244 41.759,132.083 41.500 C 131.904 41.210,131.453 41.304,131.569 41.607 C 131.653 41.824,131.627 41.841,131.445 41.690 C 131.172 41.463,130.232 41.733,129.833 42.153 C 129.696 42.298,129.433 42.441,129.250 42.470 C 128.971 42.515,127.753 43.165,125.141 44.663 C 123.730 45.473,120.512 47.788,120.504 48.000 C 120.498 48.172,120.456 48.190,120.372 48.057 C 120.290 47.929,119.664 48.312,118.500 49.202 C 116.170 50.983,114.645 52.006,113.333 52.664 C 112.737 52.963,112.225 53.274,112.194 53.355 C 112.163 53.436,112.061 53.455,111.967 53.396 C 111.873 53.338,111.731 53.394,111.651 53.520 C 111.571 53.647,111.504 53.672,111.503 53.577 C 111.501 53.482,113.089 51.794,115.030 49.827 C 116.972 47.860,118.547 46.194,118.530 46.125 C 118.514 46.056,118.577 46.000,118.670 46.000 C 118.948 46.000,119.833 44.472,119.833 43.993 C 119.833 43.543,119.388 43.000,119.019 43.000 C 118.906 43.000,118.864 42.918,118.927 42.817 C 119.080 42.570,117.510 41.000,117.109 41.000 C 116.390 41.000,115.526 41.373,115.610 41.647 C 115.666 41.833,115.630 41.819,115.492 41.602 C 115.368 41.408,115.325 40.961,115.380 40.429 C 115.518 39.088,114.920 38.500,113.417 38.500 C 112.203 38.500,110.968 39.409,111.235 40.105 C 111.287 40.240,111.267 40.312,111.190 40.264 C 111.025 40.163,111.039 42.500,111.204 42.763 C 111.316 42.941,110.000 44.167,109.697 44.167 C 109.611 44.167,109.444 44.283,109.326 44.426 C 109.208 44.568,108.130 45.367,106.931 46.201 C 105.731 47.035,104.667 47.818,104.565 47.942 C 104.463 48.065,104.327 48.167,104.262 48.167 C 104.111 48.167,101.405 50.052,99.467 51.507 C 96.115 54.025,95.720 53.947,98.154 51.250 C 98.982 50.333,99.661 49.494,99.663 49.386 C 99.665 49.277,100.172 48.752,100.791 48.219 C 103.216 46.129,106.355 42.917,105.491 43.411 C 105.291 43.525,105.287 43.509,105.467 43.316 C 105.586 43.188,105.737 43.083,105.803 43.083 C 106.004 43.083,110.155 38.782,110.077 38.656 C 110.036 38.591,110.115 38.445,110.252 38.332 C 110.388 38.219,110.500 38.190,110.500 38.269 C 110.500 38.500,114.980 33.962,115.034 33.676 C 115.061 33.534,116.190 32.378,117.542 31.110 C 118.894 29.841,120.000 28.753,120.001 28.693 C 120.002 28.633,120.548 28.012,121.214 27.313 C 123.296 25.131,124.259 23.103,123.558 22.375 C 123.314 22.122,122.167 22.096,122.167 22.343 C 122.167 22.440,122.092 22.473,122.000 22.417 C 121.908 22.360,121.833 22.398,121.833 22.500 C 121.833 22.602,121.772 22.648,121.697 22.602 C 121.371 22.400,119.079 24.269,118.822 24.946 C 118.740 25.163,118.478 25.413,118.241 25.504 C 117.801 25.671,114.167 29.107,114.167 29.356 C 114.167 29.431,113.229 30.405,112.083 31.520 C 110.938 32.635,110.000 33.677,110.000 33.836 C 110.000 33.996,109.873 34.229,109.718 34.355 C 109.475 34.552,109.455 34.549,109.573 34.333 C 109.649 34.196,108.801 34.982,107.689 36.081 C 106.577 37.179,105.667 38.133,105.667 38.201 C 105.667 38.268,104.691 39.274,103.499 40.437 C 102.306 41.600,101.350 42.660,101.374 42.793 C 101.397 42.926,101.246 43.150,101.038 43.290 C 100.693 43.523,100.669 43.521,100.766 43.268 C 100.992 42.680,99.591 41.143,99.192 41.541 C 99.047 41.686,99.000 41.664,99.000 41.450 C 99.000 41.144,98.585 41.061,98.417 41.333 C 98.283 41.549,97.550 41.549,97.417 41.333 C 97.251 41.065,96.500 41.133,96.500 41.417 C 96.500 41.700,96.239 41.752,96.083 41.500 C 95.928 41.248,95.667 41.300,95.667 41.583 C 95.667 41.721,95.587 41.833,95.490 41.833 C 95.393 41.833,95.367 41.747,95.433 41.641 C 95.625 41.329,94.662 41.588,93.090 42.271 C 92.303 42.613,91.724 42.958,91.782 43.051 C 91.838 43.143,91.803 43.168,91.704 43.106 C 91.496 42.978,90.333 43.488,90.333 43.707 C 90.333 43.787,90.272 43.815,90.198 43.769 C 90.023 43.661,88.333 44.624,88.333 44.831 C 88.333 44.918,88.221 44.947,88.085 44.894 C 87.943 44.840,87.792 44.913,87.734 45.065 C 87.678 45.212,87.577 45.298,87.510 45.256 C 87.444 45.215,87.118 45.366,86.787 45.591 C 86.455 45.816,86.142 46.000,86.090 46.000 C 85.737 46.000,81.406 49.167,80.083 50.393 C 79.625 50.817,78.487 51.557,77.554 52.036 C 76.622 52.515,75.895 52.964,75.938 53.035 C 75.982 53.105,75.890 53.114,75.735 53.054 C 75.511 52.969,75.762 52.662,76.926 51.598 C 80.888 47.975,81.889 46.814,81.889 45.841 C 81.889 45.558,81.959 45.391,82.054 45.450 C 82.151 45.510,82.182 45.421,82.130 45.234 C 81.927 44.511,81.926 44.419,82.125 44.458 C 82.255 44.484,82.333 44.311,82.333 44.000 C 82.333 43.667,82.250 43.500,82.083 43.500 C 81.786 43.500,81.760 43.306,82.024 43.043 C 82.472 42.595,81.398 41.101,80.916 41.501 C 80.700 41.680,80.676 41.670,80.764 41.440 C 80.835 41.257,80.781 41.167,80.601 41.167 C 80.454 41.167,80.333 41.242,80.333 41.333 C 80.333 41.425,80.261 41.500,80.172 41.500 C 80.083 41.500,80.054 41.388,80.106 41.250 C 80.185 41.046,80.030 41.000,79.268 41.000 C 78.548 41.000,78.333 41.058,78.333 41.250 C 78.333 41.387,78.216 41.500,78.073 41.500 C 77.931 41.500,77.860 41.425,77.917 41.333 C 78.033 41.145,77.765 41.123,77.199 41.274 C 76.944 41.343,76.847 41.462,76.911 41.629 C 76.995 41.846,76.969 41.849,76.723 41.649 C 76.468 41.441,76.451 41.452,76.562 41.750 C 76.662 42.017,76.645 42.042,76.477 41.875 C 76.211 41.611,76.078 41.613,75.804 41.884 C 75.682 42.003,75.021 42.461,74.333 42.902 C 73.646 43.342,72.928 43.845,72.737 44.020 C 72.316 44.406,71.731 43.702,72.137 43.297 C 72.427 43.007,72.376 42.667,72.042 42.664 C 71.791 42.662,71.786 42.638,72.000 42.494 C 72.221 42.347,72.219 42.303,71.985 42.122 C 71.840 42.009,71.756 41.811,71.800 41.682 C 71.854 41.521,71.794 41.480,71.608 41.551 C 71.453 41.610,71.354 41.577,71.377 41.473 C 71.434 41.213,70.453 40.891,70.369 41.142 C 70.291 41.376,69.000 41.400,69.000 41.167 C 69.000 41.075,68.852 41.000,68.672 41.000 C 68.431 41.000,68.371 41.078,68.446 41.292 C 68.530 41.530,68.508 41.545,68.325 41.375 C 68.008 41.081,67.778 41.116,67.903 41.440 C 67.992 41.674,67.969 41.682,67.741 41.493 C 67.584 41.362,67.429 41.335,67.362 41.427 C 67.301 41.513,67.142 41.607,67.009 41.636 C 66.877 41.665,65.902 42.265,64.843 42.969 C 63.783 43.674,62.853 44.278,62.774 44.311 C 62.696 44.345,62.065 44.780,61.372 45.277 C 60.678 45.775,59.636 46.447,59.055 46.772 C 58.475 47.096,58.000 47.443,58.000 47.542 C 58.000 47.641,57.953 47.676,57.896 47.619 C 57.758 47.480,56.167 48.294,56.167 48.503 C 56.167 48.593,56.110 48.652,56.042 48.634 C 55.807 48.572,55.167 48.855,55.167 49.021 C 55.167 49.112,55.097 49.143,55.012 49.091 C 54.731 48.917,54.020 49.356,54.112 49.646 C 54.175 49.844,54.157 49.860,54.045 49.704 C 53.836 49.415,51.126 50.144,51.245 50.458 C 51.288 50.573,51.210 50.667,51.072 50.667 C 50.883 50.667,50.861 50.595,50.982 50.375 C 51.283 49.830,54.692 45.833,54.856 45.833 C 54.946 45.833,54.973 45.758,54.917 45.667 C 54.860 45.575,54.886 45.500,54.975 45.500 C 55.140 45.500,57.833 42.433,57.833 42.245 C 57.833 42.189,58.846 40.954,60.083 39.500 C 61.321 38.046,62.333 36.777,62.333 36.679 C 62.333 36.580,62.440 36.500,62.570 36.500 C 62.700 36.500,63.377 35.806,64.075 34.958 C 64.772 34.110,65.603 33.104,65.922 32.722 C 66.240 32.339,66.500 31.946,66.500 31.847 C 66.500 31.748,66.566 31.667,66.647 31.667 C 66.727 31.667,67.496 30.864,68.355 29.882 C 69.214 28.901,70.485 27.514,71.180 26.800 C 71.874 26.086,72.549 25.300,72.680 25.052 C 72.810 24.805,73.235 24.307,73.625 23.947 C 74.015 23.586,74.333 23.236,74.333 23.169 C 74.333 23.102,74.690 22.680,75.125 22.230 C 75.560 21.781,76.604 20.701,77.445 19.832 C 79.385 17.823,81.722 15.561,83.368 14.098 C 84.074 13.470,84.637 12.876,84.618 12.778 C 84.599 12.679,84.696 12.595,84.833 12.591 C 85.162 12.581,85.501 11.306,85.202 11.206 C 85.090 11.169,85.038 11.074,85.086 10.995 C 85.207 10.800,84.020 9.635,83.824 9.756 C 83.737 9.809,83.667 9.774,83.667 9.677 C 83.667 9.578,83.333 9.500,82.917 9.500 C 82.504 9.500,82.166 9.556,82.166 9.625 M79.567 13.140 C 79.614 13.217,79.348 13.498,78.975 13.765 C 77.846 14.573,76.123 16.010,75.417 16.734 C 75.050 17.109,73.737 18.353,72.500 19.498 C 71.262 20.643,70.250 21.648,70.250 21.732 C 70.250 21.816,70.100 21.905,69.917 21.929 C 69.567 21.974,64.834 26.786,64.833 27.095 C 64.833 27.193,64.041 27.969,63.072 28.820 C 61.927 29.826,61.342 30.450,61.402 30.605 C 61.459 30.754,61.344 30.901,61.099 30.994 C 60.714 31.140,60.157 31.749,56.750 35.741 C 55.833 36.815,55.003 37.744,54.904 37.805 C 54.656 37.960,51.845 41.424,51.258 42.299 C 50.655 43.198,50.614 43.221,50.350 42.798 C 50.162 42.498,50.169 42.465,50.400 42.554 C 50.722 42.678,50.771 42.171,50.467 41.867 C 50.311 41.711,50.334 41.667,50.568 41.667 C 50.811 41.667,50.848 41.581,50.758 41.224 C 50.687 40.939,50.723 40.735,50.861 40.650 C 51.032 40.544,51.034 40.368,50.870 39.757 C 50.604 38.760,50.613 38.500,50.917 38.500 C 51.259 38.500,51.266 37.241,50.925 37.109 C 50.689 37.019,50.689 36.890,50.927 35.792 C 50.990 35.500,50.957 35.333,50.835 35.333 C 50.353 35.333,52.558 32.216,53.067 32.178 C 53.297 32.161,55.084 30.436,55.035 30.279 C 55.011 30.204,55.064 30.187,55.153 30.242 C 55.300 30.332,57.508 28.459,59.292 26.730 C 59.681 26.353,60.000 26.089,60.000 26.144 C 60.000 26.199,60.329 25.901,60.731 25.482 C 61.133 25.062,62.164 24.181,63.022 23.523 C 63.881 22.865,65.408 21.690,66.417 20.912 C 67.425 20.133,68.887 19.071,69.667 18.552 C 70.446 18.032,71.287 17.470,71.535 17.303 C 71.783 17.137,72.065 17.000,72.160 17.000 C 72.255 17.000,72.333 16.932,72.333 16.848 C 72.333 16.642,74.651 15.319,77.038 14.162 C 78.113 13.641,78.944 13.166,78.885 13.107 C 78.826 13.048,78.936 13.000,79.129 13.000 C 79.322 13.000,79.519 13.063,79.567 13.140 M249.611 18.848 C 249.668 19.131,249.815 19.401,249.939 19.448 C 250.063 19.496,250.110 19.621,250.043 19.726 C 249.867 20.003,249.873 20.220,250.065 20.474 C 250.188 20.637,250.152 20.745,249.936 20.866 C 249.725 20.984,249.668 21.149,249.739 21.433 C 249.796 21.659,249.766 21.833,249.670 21.833 C 249.576 21.833,249.500 21.961,249.500 22.117 C 249.500 23.857,245.273 29.418,242.314 31.571 C 240.623 32.802,240.058 32.953,239.055 32.444 C 237.968 31.894,237.012 31.712,236.818 32.020 C 236.700 32.205,236.671 32.196,236.669 31.972 C 236.668 31.819,236.573 31.663,236.458 31.624 C 235.832 31.413,242.799 23.906,247.417 19.819 C 249.258 18.188,249.461 18.098,249.611 18.848 M374.528 18.761 C 372.834 19.217,371.317 20.078,368.698 22.070 C 367.845 22.719,367.016 23.325,366.856 23.417 C 366.696 23.508,366.169 23.973,365.686 24.449 C 365.203 24.925,364.743 25.337,364.664 25.365 C 364.585 25.394,363.569 26.279,362.408 27.333 C 361.246 28.387,360.151 29.333,359.974 29.436 C 359.797 29.538,357.612 31.680,355.118 34.198 C 352.178 37.164,350.290 38.939,349.750 39.243 C 348.506 39.942,347.212 40.934,346.006 42.113 C 345.413 42.693,344.859 43.167,344.775 43.167 C 344.690 43.167,344.013 43.718,343.269 44.392 C 339.918 47.426,331.010 53.325,330.061 53.137 C 329.883 53.102,330.469 52.503,331.770 51.393 C 334.464 49.092,335.755 47.711,336.278 46.569 C 336.763 45.510,336.992 44.167,336.688 44.167 C 336.585 44.167,336.500 44.050,336.500 43.907 C 336.500 43.764,336.575 43.693,336.667 43.750 C 336.962 43.932,336.846 42.965,336.483 42.215 C 335.960 41.133,335.476 40.951,333.349 41.033 C 332.003 41.084,331.425 41.181,330.917 41.439 C 329.703 42.055,328.283 42.855,327.385 43.430 L 326.500 43.996 326.500 43.571 C 326.500 43.331,326.572 43.192,326.667 43.250 C 327.261 43.618,326.472 41.909,325.727 41.216 C 325.125 40.656,323.597 40.483,323.924 41.012 C 323.977 41.097,323.828 41.167,323.593 41.167 C 323.312 41.167,323.167 41.075,323.167 40.898 C 323.167 40.127,320.636 41.219,317.443 43.368 C 316.907 43.729,316.451 44.000,316.430 43.970 C 316.409 43.941,316.306 43.436,316.201 42.848 C 315.561 39.262,312.255 39.689,306.469 44.106 C 303.596 46.299,301.435 47.667,300.842 47.667 C 300.750 47.667,300.968 47.212,301.328 46.655 C 302.040 45.553,302.552 43.823,302.200 43.706 C 302.090 43.669,302.000 43.566,302.000 43.476 C 302.000 43.387,302.075 43.360,302.167 43.417 C 302.444 43.588,302.349 42.633,302.014 41.897 C 300.785 39.191,293.672 41.056,288.449 45.454 C 288.038 45.800,287.055 46.571,286.263 47.167 C 285.472 47.762,284.020 48.881,283.037 49.652 C 280.402 51.720,277.152 53.707,276.869 53.424 C 276.815 53.370,277.071 53.009,277.437 52.622 C 277.804 52.234,278.296 51.654,278.531 51.333 C 278.766 51.012,280.486 49.167,282.354 47.232 C 285.317 44.163,289.194 39.981,289.777 39.227 C 289.938 39.018,290.396 38.985,292.469 39.029 L 294.967 39.083 295.067 38.352 C 295.289 36.727,295.412 36.833,293.297 36.833 L 291.428 36.833 292.297 35.953 C 292.775 35.469,293.167 35.015,293.167 34.944 C 293.167 34.873,293.615 34.294,294.164 33.657 C 296.340 31.128,296.445 29.505,294.419 29.714 C 292.947 29.866,290.545 31.688,287.415 35.026 L 285.750 36.803 284.075 36.818 L 282.400 36.833 282.200 37.387 C 282.090 37.691,282.000 38.198,282.000 38.512 L 282.000 39.083 282.958 39.040 L 283.917 38.996 283.333 39.218 C 282.079 39.696,281.402 40.188,277.928 43.151 C 275.950 44.838,273.975 46.453,273.540 46.739 C 272.240 47.595,269.298 49.689,268.583 50.266 C 267.928 50.795,262.828 53.500,262.485 53.500 C 262.222 53.500,265.130 50.209,267.565 47.752 C 268.746 46.559,270.819 44.346,272.171 42.833 C 273.523 41.321,274.865 39.911,275.153 39.700 C 275.440 39.489,275.630 39.241,275.573 39.150 C 275.505 39.040,276.337 39.000,277.983 39.033 C 280.799 39.089,280.603 39.180,280.773 37.736 L 280.879 36.833 278.988 36.833 L 277.097 36.833 277.774 36.125 C 281.666 32.054,282.597 29.455,280.071 29.716 C 279.455 29.780,278.893 29.968,278.440 30.264 C 277.540 30.852,274.706 33.202,274.637 33.417 C 274.607 33.508,273.826 34.315,272.901 35.208 L 271.219 36.833 269.638 36.833 L 268.057 36.833 267.862 37.679 C 267.643 38.629,267.609 39.336,267.794 39.083 C 267.865 38.987,268.267 38.958,268.750 39.015 C 269.208 39.070,269.450 39.126,269.287 39.140 C 268.526 39.208,266.866 40.322,264.490 42.359 C 259.019 47.051,259.018 47.052,257.899 47.429 C 257.317 47.624,256.884 47.828,256.937 47.881 C 256.990 47.934,256.883 47.938,256.699 47.890 C 256.389 47.809,256.411 47.737,257.019 46.869 C 258.937 44.131,258.437 40.922,256.042 40.605 C 250.861 39.917,242.317 45.613,241.232 50.478 C 239.698 57.356,246.727 57.771,253.274 51.190 C 253.858 50.604,254.027 50.517,254.358 50.638 C 255.372 51.008,256.431 50.869,257.900 50.174 C 259.947 49.207,260.011 49.222,259.471 50.535 C 257.713 54.814,260.698 57.547,264.833 55.446 C 268.405 53.631,271.585 51.661,272.077 50.958 C 272.218 50.757,272.333 50.660,272.333 50.742 C 272.333 50.824,272.502 50.743,272.708 50.562 C 272.915 50.380,273.349 50.038,273.674 49.800 L 274.265 49.369 273.883 50.143 C 273.017 51.899,273.052 55.000,273.937 55.000 C 274.063 55.000,274.148 55.086,274.125 55.192 C 274.102 55.298,274.338 55.560,274.650 55.775 C 276.423 57.001,279.627 55.808,283.957 52.309 C 285.247 51.266,285.377 51.192,285.226 51.587 C 284.821 52.642,285.596 54.742,286.654 55.454 C 288.806 56.905,296.199 53.803,297.770 50.791 C 297.988 50.372,298.042 50.351,298.380 50.554 C 299.560 51.262,300.772 50.930,304.110 48.982 C 304.920 48.509,305.808 48.009,306.083 47.870 C 306.358 47.731,307.371 47.038,308.333 46.328 C 310.260 44.909,312.000 43.767,312.000 43.923 C 312.000 43.979,310.650 45.403,309.000 47.088 C 307.350 48.773,306.000 50.222,306.000 50.308 C 306.000 50.394,305.779 50.701,305.509 50.990 C 304.324 52.259,303.570 54.837,304.200 55.467 C 305.218 56.484,308.906 54.771,311.535 52.059 C 311.966 51.614,312.685 50.875,313.133 50.417 C 315.385 48.108,322.526 43.137,322.963 43.574 C 323.120 43.732,322.203 44.763,319.769 47.165 C 318.429 48.487,317.333 49.657,317.333 49.764 C 317.333 49.871,317.220 50.053,317.082 50.168 C 316.136 50.953,314.500 53.777,314.500 54.625 C 314.500 56.803,318.336 55.547,321.700 52.268 C 322.039 51.937,322.396 51.667,322.492 51.667 C 322.588 51.667,322.667 51.588,322.667 51.492 C 322.667 50.647,329.082 45.551,331.417 44.542 C 333.906 43.465,333.792 43.753,330.750 46.227 C 327.850 48.584,326.651 50.078,326.401 51.642 C 326.313 52.193,326.338 52.337,326.515 52.299 C 326.643 52.272,326.767 52.414,326.799 52.625 C 326.838 52.879,326.772 53.000,326.595 53.000 C 325.814 53.000,326.795 54.942,327.833 55.451 C 328.673 55.863,329.429 55.940,329.557 55.625 C 329.622 55.464,329.678 55.469,329.802 55.647 C 330.230 56.258,332.879 55.274,335.075 53.689 C 335.813 53.156,337.119 52.239,337.978 51.652 C 338.837 51.064,340.108 50.192,340.802 49.713 C 341.990 48.895,342.426 48.717,342.050 49.204 C 341.490 49.930,340.810 52.539,341.202 52.458 C 341.497 52.398,341.481 53.327,341.185 53.493 C 340.800 53.709,341.203 54.808,341.922 55.505 L 342.519 56.083 344.218 56.083 C 346.557 56.083,348.389 55.209,351.792 52.470 C 352.586 51.831,353.000 51.587,353.000 51.759 C 353.000 51.902,353.075 51.973,353.167 51.917 C 353.264 51.857,353.333 52.026,353.333 52.323 C 353.333 52.604,353.249 52.833,353.145 52.833 C 352.392 52.833,353.593 55.240,354.567 55.683 C 356.295 56.467,360.837 55.638,363.149 54.117 C 363.479 53.899,364.664 53.183,365.781 52.525 C 366.899 51.868,367.925 51.218,368.063 51.080 C 368.200 50.943,368.449 50.774,368.615 50.705 C 369.207 50.460,371.446 48.913,373.258 47.497 C 375.302 45.899,377.278 44.518,377.095 44.815 C 377.030 44.920,376.475 45.383,375.863 45.843 C 373.942 47.287,372.536 48.796,371.912 50.083 C 371.309 51.326,370.972 52.640,371.310 52.431 C 371.440 52.351,371.500 52.527,371.500 52.990 C 371.500 53.380,371.421 53.667,371.313 53.667 C 371.045 53.667,371.268 54.650,371.627 55.054 C 372.400 55.924,374.057 56.218,375.591 55.756 C 377.664 55.132,375.671 56.656,373.417 57.418 C 372.408 57.759,371.058 58.300,370.417 58.620 C 369.775 58.941,368.762 59.404,368.167 59.650 C 362.200 62.113,358.152 66.518,359.170 69.439 C 359.413 70.134,361.500 71.103,361.500 70.521 C 361.500 70.418,361.688 70.333,361.917 70.333 C 362.146 70.333,362.333 70.408,362.333 70.500 C 362.333 70.990,364.708 70.429,366.642 69.482 C 369.033 68.311,376.992 61.844,377.474 60.681 C 377.656 60.241,380.456 57.667,380.751 57.667 C 384.087 57.667,394.167 50.938,394.167 48.711 C 394.167 47.221,393.178 47.436,390.500 49.507 C 388.019 51.426,385.372 53.092,383.750 53.755 C 383.104 54.019,383.128 53.981,384.502 52.555 C 393.415 43.310,394.403 41.962,392.725 41.324 C 391.839 40.987,389.167 41.391,389.167 41.862 C 389.167 41.933,388.954 42.102,388.693 42.236 C 388.433 42.371,387.214 43.431,385.985 44.592 C 384.756 45.753,383.563 46.825,383.333 46.974 C 382.815 47.311,380.643 49.167,379.752 50.033 C 378.845 50.916,376.869 52.262,375.890 52.663 L 375.083 52.994 376.320 51.872 C 377.000 51.255,378.388 49.995,379.403 49.072 C 381.703 46.983,383.214 44.488,382.354 44.201 C 382.251 44.167,382.167 43.953,382.167 43.726 C 382.167 43.494,382.239 43.359,382.333 43.417 C 382.689 43.636,382.476 42.694,382.001 41.946 C 381.398 40.994,380.167 40.415,380.167 41.083 C 380.167 41.222,380.019 41.333,379.833 41.333 C 379.637 41.333,379.500 41.222,379.500 41.062 C 379.500 39.966,374.445 42.629,371.333 45.363 C 369.927 46.599,367.952 48.011,366.833 48.581 C 366.512 48.745,365.537 49.345,364.667 49.914 C 359.681 53.177,354.750 54.677,356.499 52.400 C 356.773 52.042,357.177 51.487,357.396 51.167 C 358.185 50.009,358.555 49.796,360.460 49.401 C 364.522 48.558,368.130 46.493,368.944 44.544 C 369.174 43.993,369.173 43.917,368.932 43.741 C 368.594 43.493,368.582 42.833,368.917 42.833 C 369.460 42.833,368.833 41.779,368.035 41.352 C 366.374 40.463,361.505 42.126,357.583 44.923 C 356.758 45.511,355.381 46.425,354.523 46.955 C 353.665 47.484,352.502 48.300,351.940 48.768 C 348.965 51.243,345.123 53.686,344.530 53.480 C 344.308 53.402,345.646 51.636,348.743 47.917 C 350.041 46.358,351.714 44.333,352.461 43.417 C 354.339 41.114,355.865 39.778,357.190 39.277 C 359.764 38.303,366.068 34.902,367.140 33.908 C 367.366 33.698,368.045 33.239,368.649 32.888 C 372.596 30.592,378.315 25.458,379.342 23.289 C 379.838 22.239,379.972 21.500,379.667 21.500 C 379.438 21.500,379.455 21.043,379.688 20.965 C 380.052 20.844,379.653 19.860,379.002 19.271 C 378.265 18.606,376.915 18.270,376.651 18.687 C 376.545 18.853,376.504 18.859,376.503 18.708 C 376.499 18.434,375.658 18.457,374.528 18.761 M376.575 22.222 C 375.499 23.878,369.084 29.595,367.709 30.122 C 367.409 30.237,362.508 33.294,362.167 33.578 C 361.843 33.849,360.333 34.718,360.333 34.634 C 360.333 34.516,369.570 25.378,370.583 24.494 C 372.061 23.204,374.306 21.773,375.385 21.434 C 375.907 21.270,376.333 21.068,376.333 20.984 C 376.333 20.901,376.489 20.989,376.680 21.180 L 377.027 21.527 376.575 22.222 M38.408 23.486 C 38.460 23.570,38.408 23.682,38.293 23.736 C 38.178 23.790,38.372 23.791,38.725 23.740 C 39.191 23.671,39.333 23.699,39.246 23.841 C 39.160 23.979,39.234 24.001,39.500 23.917 C 39.772 23.830,39.841 23.853,39.750 24.000 C 39.663 24.141,39.720 24.173,39.937 24.105 C 40.109 24.051,40.362 24.080,40.500 24.168 C 40.637 24.256,40.675 24.330,40.583 24.333 C 40.492 24.335,40.738 24.521,41.130 24.745 C 41.522 24.969,41.953 25.110,42.088 25.058 C 42.223 25.007,42.333 25.052,42.333 25.159 C 42.333 25.266,42.258 25.307,42.167 25.250 C 42.075 25.193,42.000 25.214,42.000 25.296 C 42.000 25.582,42.222 25.662,42.463 25.462 C 42.661 25.297,42.779 25.351,43.102 25.755 C 43.666 26.459,43.595 26.610,43.005 25.961 C 42.733 25.662,42.508 25.496,42.505 25.592 C 42.494 25.989,43.672 26.927,43.852 26.665 C 43.988 26.466,44.005 26.483,43.936 26.750 C 43.876 26.986,44.093 27.350,44.680 28.000 C 45.136 28.504,45.462 28.785,45.403 28.625 C 45.345 28.465,45.218 28.333,45.121 28.333 C 45.024 28.333,44.984 28.294,45.032 28.246 C 45.244 28.034,45.694 28.436,46.309 29.389 C 47.007 30.472,47.600 31.748,47.326 31.579 C 47.237 31.524,47.251 31.669,47.356 31.901 C 47.462 32.133,47.621 32.278,47.709 32.224 C 47.806 32.164,47.822 32.274,47.750 32.500 C 47.664 32.772,47.686 32.841,47.833 32.750 C 47.980 32.659,48.003 32.728,47.917 33.000 C 47.842 33.235,47.860 33.337,47.965 33.272 C 48.057 33.215,48.178 33.290,48.235 33.439 C 48.376 33.805,44.218 37.886,43.812 37.780 C 43.633 37.733,43.214 38.042,42.641 38.645 L 41.750 39.583 42.708 38.672 C 43.947 37.495,43.958 37.814,42.722 39.061 C 42.041 39.747,41.740 39.953,41.645 39.798 C 41.515 39.588,39.667 41.215,39.667 41.540 C 39.667 41.614,40.042 41.281,40.500 40.801 C 40.958 40.320,41.333 40.003,41.333 40.095 C 41.333 40.401,39.713 41.876,39.592 41.680 C 39.522 41.567,38.855 42.068,37.864 42.981 C 36.976 43.797,36.002 44.671,35.698 44.923 L 35.147 45.380 34.561 44.815 C 34.239 44.504,33.558 43.706,33.048 43.042 C 32.538 42.377,32.084 41.833,32.040 41.833 C 31.995 41.833,32.053 41.946,32.167 42.083 C 32.295 42.239,32.307 42.333,32.198 42.333 C 31.739 42.333,29.767 38.472,29.767 37.572 C 29.767 37.268,29.696 37.065,29.609 37.119 C 29.515 37.177,29.496 37.037,29.562 36.774 C 29.641 36.460,29.612 36.344,29.462 36.374 C 29.240 36.419,29.231 36.282,29.425 35.785 C 29.505 35.579,29.470 35.501,29.312 35.535 C 29.079 35.584,29.072 35.442,29.266 34.618 C 29.347 34.272,29.316 34.165,29.146 34.201 C 28.970 34.239,28.917 33.998,28.917 33.167 C 28.917 32.389,28.975 32.095,29.125 32.125 C 29.374 32.175,29.407 31.565,29.164 31.415 C 29.071 31.357,29.038 31.239,29.092 31.152 C 29.146 31.066,29.260 31.038,29.345 31.090 C 29.430 31.143,29.500 31.074,29.500 30.936 C 29.500 30.799,29.424 30.639,29.331 30.582 C 29.237 30.524,29.205 30.406,29.259 30.319 C 29.312 30.232,29.429 30.206,29.518 30.261 C 29.614 30.321,29.641 30.203,29.585 29.972 C 29.165 28.254,33.780 23.491,35.457 23.912 C 35.712 23.976,35.822 23.938,35.793 23.795 C 35.752 23.594,35.848 23.594,36.549 23.792 C 36.713 23.838,36.835 23.810,36.821 23.730 C 36.806 23.649,36.803 23.527,36.814 23.458 C 36.842 23.279,38.295 23.304,38.408 23.486 M34.125 24.429 C 33.479 24.779,33.552 24.900,34.208 24.566 C 34.837 24.247,34.948 24.164,34.736 24.173 C 34.652 24.177,34.377 24.292,34.125 24.429 M31.000 27.167 C 30.804 27.442,30.681 27.667,30.727 27.667 C 30.773 27.667,30.971 27.442,31.167 27.167 C 31.362 26.892,31.485 26.667,31.439 26.667 C 31.394 26.667,31.196 26.892,31.000 27.167 M44.833 27.416 C 45.252 27.862,45.182 28.192,44.745 27.829 C 44.407 27.549,44.112 27.000,44.298 27.000 C 44.377 27.000,44.618 27.187,44.833 27.416 M30.242 28.349 C 30.095 28.632,30.005 28.894,30.041 28.930 C 30.077 28.966,30.232 28.734,30.384 28.415 C 30.727 27.696,30.608 27.641,30.242 28.349 M46.292 29.931 C 46.183 30.039,46.774 31.111,47.029 31.268 C 47.118 31.323,47.026 31.042,46.825 30.642 C 46.388 29.776,46.413 29.809,46.292 29.931 M45.352 36.112 C 44.562 36.907,44.329 37.188,44.833 36.735 C 46.540 35.204,47.084 34.670,46.935 34.668 C 46.854 34.667,46.141 35.317,45.352 36.112 M48.847 36.367 C 48.618 37.023,48.614 38.507,48.840 39.101 C 49.051 39.655,48.910 40.223,48.660 39.829 C 48.540 39.639,48.505 39.678,48.505 40.000 C 48.505 40.229,48.574 40.526,48.658 40.659 C 48.742 40.792,48.769 40.969,48.718 41.052 C 48.667 41.134,48.561 41.100,48.482 40.976 C 48.375 40.807,48.338 40.836,48.336 41.092 C 48.334 41.280,48.417 41.517,48.519 41.619 C 48.621 41.721,48.649 41.894,48.581 42.003 C 48.489 42.153,48.423 42.147,48.315 41.976 C 48.202 41.798,48.171 41.810,48.169 42.032 C 48.168 42.187,48.243 42.361,48.336 42.418 C 48.429 42.476,48.462 42.594,48.408 42.681 C 48.354 42.768,48.237 42.794,48.148 42.739 C 48.049 42.677,48.031 42.814,48.101 43.094 C 48.187 43.436,48.163 43.518,48.006 43.421 C 47.852 43.325,47.828 43.389,47.917 43.667 C 48.003 43.939,47.980 44.008,47.833 43.917 C 47.686 43.826,47.664 43.894,47.750 44.167 C 47.833 44.429,47.812 44.506,47.678 44.424 C 47.542 44.340,47.520 44.438,47.601 44.761 C 47.689 45.111,47.665 45.185,47.499 45.082 C 47.354 44.993,47.322 45.014,47.403 45.144 C 47.611 45.481,45.820 50.000,45.479 50.000 C 45.246 50.000,45.308 49.807,45.850 48.833 C 46.131 48.329,46.391 47.729,46.427 47.500 C 46.464 47.271,46.147 47.815,45.723 48.708 C 45.106 50.008,44.213 51.108,44.606 50.083 C 44.713 49.806,44.413 49.736,44.250 50.000 C 44.193 50.092,44.030 50.167,43.886 50.167 C 43.674 50.167,43.664 50.121,43.833 49.917 C 44.002 49.713,43.993 49.667,43.784 49.667 C 43.643 49.667,43.499 49.753,43.464 49.858 C 43.419 49.994,43.151 49.966,42.532 49.761 C 41.771 49.508,41.388 49.040,42.130 49.270 C 42.380 49.347,42.379 49.334,42.116 49.166 C 41.901 49.028,41.755 49.024,41.599 49.153 C 41.444 49.282,41.234 49.281,40.858 49.150 C 40.263 48.943,40.133 48.590,40.708 48.745 C 41.050 48.836,41.046 48.824,40.667 48.610 C 40.142 48.314,39.301 48.065,39.662 48.313 C 39.973 48.527,39.806 48.710,39.431 48.566 C 39.275 48.506,39.185 48.360,39.230 48.242 C 39.334 47.971,38.816 47.758,38.661 48.008 C 38.583 48.135,38.216 48.028,37.512 47.673 C 36.538 47.181,36.317 46.867,36.825 46.697 C 36.950 46.656,36.999 46.701,36.937 46.800 C 36.877 46.897,36.923 47.032,37.039 47.099 C 37.155 47.165,37.199 47.163,37.136 47.093 C 37.073 47.023,37.504 46.556,38.094 46.056 C 38.684 45.555,39.167 45.099,39.167 45.042 C 39.167 44.984,38.937 45.158,38.656 45.427 C 38.366 45.705,38.191 45.796,38.252 45.639 C 38.416 45.210,40.333 43.602,40.333 43.893 C 40.333 44.030,40.134 44.299,39.891 44.490 C 39.648 44.682,39.484 44.873,39.526 44.915 C 39.625 45.014,42.335 42.464,42.334 42.272 C 42.334 42.193,42.018 42.434,41.633 42.808 C 40.641 43.771,40.601 43.497,41.587 42.496 C 42.091 41.985,42.504 41.698,42.664 41.749 C 42.835 41.803,43.605 41.137,44.920 39.795 C 46.018 38.675,46.673 37.977,46.375 38.244 C 46.077 38.511,45.833 38.670,45.833 38.597 C 45.833 38.396,46.701 37.756,46.978 37.753 C 47.112 37.751,47.256 37.646,47.299 37.518 C 47.346 37.378,47.303 37.333,47.188 37.403 C 46.714 37.697,47.081 37.061,47.864 36.233 C 48.810 35.232,49.222 35.289,48.847 36.367 M48.090 36.415 C 47.818 36.637,47.636 36.859,47.685 36.908 C 47.734 36.956,47.989 36.772,48.252 36.498 C 48.826 35.899,48.762 35.866,48.090 36.415 M45.833 38.712 C 45.833 38.737,45.177 39.393,44.375 40.170 C 43.095 41.411,43.051 41.441,44.017 40.417 C 44.621 39.775,45.221 39.122,45.350 38.965 C 45.551 38.719,45.833 38.571,45.833 38.712 M30.333 38.894 C 30.333 39.112,31.326 40.976,31.500 41.083 C 31.595 41.142,31.397 40.679,31.058 40.054 C 30.379 38.799,30.333 38.726,30.333 38.894 M38.754 42.663 C 38.304 43.119,37.895 43.449,37.843 43.397 C 37.759 43.311,39.310 41.845,39.494 41.837 C 39.536 41.835,39.203 42.207,38.754 42.663 M33.250 43.500 C 33.416 43.683,33.477 43.833,33.385 43.833 C 33.293 43.833,33.083 43.683,32.917 43.500 C 32.751 43.317,32.690 43.167,32.782 43.167 C 32.873 43.167,33.084 43.317,33.250 43.500 M133.461 43.563 C 133.302 43.684,133.210 43.821,133.257 43.868 C 133.303 43.914,133.208 44.053,133.046 44.177 C 132.810 44.355,132.790 44.356,132.945 44.180 C 133.053 44.059,133.103 43.863,133.058 43.744 C 132.989 43.565,133.189 43.438,133.667 43.358 C 133.712 43.350,133.620 43.443,133.461 43.563 M255.413 43.494 C 255.809 44.135,252.485 48.380,250.054 50.335 C 248.223 51.808,245.122 53.434,244.557 53.217 C 243.783 52.920,250.450 45.677,252.486 44.603 C 252.723 44.478,253.329 44.142,253.833 43.857 C 254.780 43.322,255.241 43.216,255.413 43.494 M299.575 43.486 C 299.815 43.874,298.647 45.789,297.326 47.175 C 296.873 47.649,296.552 48.115,296.611 48.211 C 296.670 48.307,296.647 48.341,296.560 48.287 C 296.473 48.233,295.894 48.710,295.272 49.347 C 293.637 51.022,291.295 52.510,289.389 53.083 C 288.442 53.368,288.360 53.173,289.033 52.233 C 289.336 51.810,289.658 51.337,289.750 51.182 C 291.268 48.612,299.000 42.555,299.575 43.486 M37.667 43.568 C 37.667 43.606,37.100 44.143,36.408 44.763 L 35.150 45.889 34.246 44.996 C 33.749 44.505,33.379 44.065,33.425 44.020 C 33.470 43.974,33.876 44.300,34.326 44.743 L 35.145 45.549 35.947 44.877 C 36.389 44.507,36.893 44.045,37.067 43.852 C 37.352 43.536,37.667 43.388,37.667 43.568 M97.500 43.667 C 97.500 43.758,97.638 43.833,97.808 43.833 C 97.977 43.833,98.258 43.996,98.433 44.195 C 98.692 44.491,98.701 44.539,98.479 44.458 C 98.298 44.392,98.148 44.491,98.028 44.755 C 97.874 45.092,97.888 45.135,98.118 45.047 C 98.415 44.933,98.322 45.177,97.865 45.708 C 97.535 46.093,97.213 46.087,97.516 45.702 C 97.645 45.538,97.432 45.754,97.044 46.182 C 96.177 47.137,93.610 49.333,93.360 49.333 C 93.260 49.333,93.095 49.489,92.993 49.679 C 92.822 50.000,92.835 50.011,93.174 49.829 C 93.967 49.405,93.252 50.036,91.561 51.255 C 89.763 52.550,89.172 52.897,89.404 52.520 C 89.473 52.408,89.155 52.526,88.697 52.782 C 88.238 53.038,87.904 53.312,87.953 53.391 C 88.002 53.471,87.883 53.485,87.689 53.424 C 87.413 53.336,87.357 53.369,87.436 53.572 C 87.491 53.716,87.453 53.833,87.351 53.833 C 87.250 53.833,87.167 53.758,87.167 53.667 C 87.167 53.575,87.092 53.500,87.000 53.500 C 86.908 53.500,86.852 53.594,86.875 53.708 C 86.930 53.983,86.133 53.983,86.042 53.708 C 85.996 53.572,86.078 53.533,86.278 53.596 C 86.563 53.685,86.564 53.679,86.292 53.504 C 85.918 53.264,85.928 53.018,86.333 52.500 C 86.728 51.995,86.768 52.173,86.400 52.798 C 86.236 53.076,86.393 52.965,86.807 52.510 C 87.177 52.103,87.437 51.699,87.383 51.612 C 87.330 51.526,87.195 51.625,87.083 51.833 C 86.960 52.064,86.837 52.141,86.769 52.031 C 86.598 51.755,89.832 48.461,90.184 48.553 C 90.365 48.600,90.679 48.403,91.028 48.023 L 91.583 47.417 91.042 47.907 C 90.418 48.470,90.293 48.253,90.908 47.675 C 91.133 47.464,91.425 47.333,91.557 47.384 C 91.694 47.436,91.967 47.284,92.191 47.031 C 92.564 46.607,92.565 46.601,92.208 46.902 C 92.002 47.076,91.833 47.141,91.833 47.046 C 91.833 46.781,92.303 46.453,92.547 46.546 C 92.667 46.592,92.990 46.432,93.264 46.190 C 93.539 45.948,93.666 45.815,93.548 45.895 C 93.277 46.079,93.263 45.804,93.529 45.537 C 93.663 45.403,93.790 45.395,93.928 45.510 C 94.071 45.628,94.124 45.614,94.107 45.464 C 94.094 45.346,94.158 45.250,94.250 45.250 C 94.342 45.250,94.397 45.309,94.373 45.382 C 94.321 45.537,94.776 45.302,95.250 44.928 C 95.519 44.717,95.527 44.686,95.292 44.767 C 94.525 45.034,95.119 44.424,96.042 43.997 C 97.159 43.480,97.500 43.403,97.500 43.667 M132.005 44.490 C 131.901 44.684,131.745 44.799,131.658 44.745 C 131.571 44.691,131.500 44.739,131.500 44.851 C 131.500 44.964,131.451 45.006,131.390 44.946 C 131.330 44.886,131.180 44.920,131.057 45.022 C 130.921 45.135,130.833 45.143,130.833 45.041 C 130.833 44.834,131.331 44.404,131.338 44.605 C 131.341 44.685,131.421 44.617,131.515 44.455 C 131.610 44.292,131.758 44.203,131.844 44.256 C 131.930 44.310,132.000 44.261,132.000 44.149 C 132.000 44.036,132.044 43.988,132.097 44.041 C 132.150 44.095,132.109 44.297,132.005 44.490 M132.394 44.750 C 132.292 45.014,132.000 45.097,132.000 44.861 C 132.000 44.685,132.182 44.500,132.356 44.500 C 132.429 44.500,132.446 44.612,132.394 44.750 M131.087 45.392 C 131.221 45.341,131.300 45.247,131.261 45.184 C 131.222 45.121,131.330 45.059,131.502 45.046 C 131.709 45.030,131.784 45.102,131.723 45.260 C 131.673 45.391,131.575 45.463,131.505 45.420 C 131.435 45.376,131.245 45.488,131.083 45.667 C 130.921 45.846,130.724 45.952,130.644 45.903 C 130.565 45.854,130.500 45.893,130.500 45.990 C 130.500 46.087,130.444 46.154,130.375 46.139 C 130.306 46.124,129.888 46.274,129.445 46.473 C 128.438 46.923,128.161 46.934,128.712 46.500 C 128.945 46.317,129.170 46.167,129.211 46.167 C 129.253 46.167,129.572 45.898,129.920 45.569 C 130.449 45.070,130.578 45.014,130.698 45.229 C 130.777 45.370,130.952 45.444,131.087 45.392 M130.164 45.671 C 129.761 45.979,129.760 45.984,130.128 45.890 C 130.335 45.837,130.549 45.722,130.603 45.635 C 130.786 45.339,130.579 45.356,130.164 45.671 M37.594 46.297 C 37.334 46.546,37.181 46.637,37.253 46.500 C 37.473 46.081,37.882 45.659,37.976 45.754 C 38.025 45.803,37.853 46.047,37.594 46.297 M230.571 47.375 C 230.998 48.026,232.063 48.535,232.735 48.408 C 235.287 47.930,229.307 52.300,226.333 53.087 C 223.703 53.783,222.925 53.076,224.105 51.062 C 224.760 49.943,228.221 46.667,228.746 46.667 C 228.816 46.667,229.144 46.428,229.475 46.137 L 230.078 45.608 230.195 46.294 C 230.260 46.671,230.429 47.158,230.571 47.375 M93.000 46.250 C 92.882 46.392,92.748 46.471,92.702 46.425 C 92.657 46.379,92.716 46.225,92.833 46.083 C 92.951 45.941,93.085 45.863,93.131 45.909 C 93.177 45.954,93.118 46.108,93.000 46.250 M96.583 47.167 C 96.136 47.621,95.733 47.955,95.687 47.909 C 95.641 47.863,95.969 47.454,96.417 47.000 C 96.864 46.546,97.267 46.212,97.313 46.258 C 97.359 46.304,97.031 46.713,96.583 47.167 M95.000 48.583 C 94.785 48.812,94.572 48.961,94.526 48.915 C 94.481 48.870,94.619 48.645,94.833 48.417 C 95.048 48.188,95.261 48.039,95.307 48.085 C 95.353 48.130,95.215 48.355,95.000 48.583 M88.695 50.066 C 88.038 50.743,87.500 51.358,87.500 51.432 C 87.500 51.506,87.560 51.495,87.634 51.408 C 87.708 51.321,88.283 50.706,88.911 50.042 C 89.540 49.377,90.018 48.833,89.972 48.833 C 89.927 48.833,89.352 49.388,88.695 50.066 M94.082 49.334 C 93.916 49.518,93.744 49.633,93.699 49.588 C 93.588 49.476,94.003 49.000,94.213 49.000 C 94.308 49.000,94.249 49.150,94.082 49.334 M90.833 51.351 C 89.525 52.306,89.388 52.521,90.634 51.663 C 91.527 51.047,92.002 50.645,91.802 50.674 C 91.773 50.678,91.337 50.983,90.833 51.351 M369.750 63.109 C 366.490 66.249,364.264 67.788,362.735 67.961 C 361.718 68.075,361.776 67.816,363.042 66.585 C 364.962 64.717,370.666 61.143,371.667 61.180 C 371.712 61.181,370.850 62.050,369.750 63.109 " stroke="none" fill="#fcfcfc" fill-rule="evenodd"></path><path id="path1" d="M33.333 55.338 L 32.583 55.460 33.450 55.451 C 33.927 55.445,34.278 55.379,34.232 55.304 C 34.185 55.228,34.133 55.178,34.115 55.192 C 34.098 55.205,33.746 55.271,33.333 55.338 M40.244 58.708 L 39.417 59.583 40.292 58.756 C 41.105 57.988,41.243 57.833,41.119 57.833 C 41.092 57.833,40.699 58.227,40.244 58.708 " stroke="none" fill="#e4e4e4" fill-rule="evenodd"></path><path id="path2" d="M37.211 23.620 C 37.464 23.658,37.839 23.657,38.044 23.617 C 38.249 23.578,38.042 23.546,37.583 23.548 C 37.125 23.549,36.957 23.581,37.211 23.620 M29.053 33.167 C 29.053 33.762,29.084 34.006,29.121 33.708 C 29.158 33.410,29.158 32.923,29.121 32.625 C 29.084 32.327,29.053 32.571,29.053 33.167 M32.583 55.167 C 32.520 55.269,32.779 55.333,33.250 55.333 C 33.721 55.333,33.980 55.269,33.917 55.167 C 33.860 55.075,33.560 55.000,33.250 55.000 C 32.940 55.000,32.640 55.075,32.583 55.167 M31.762 55.420 C 31.586 55.554,31.474 55.696,31.515 55.737 C 31.555 55.777,31.775 55.667,32.002 55.492 C 32.230 55.317,32.342 55.175,32.250 55.176 C 32.158 55.177,31.939 55.287,31.762 55.420 M34.167 55.246 C 34.167 55.289,34.410 55.448,34.708 55.599 C 35.006 55.749,35.419 56.027,35.625 56.215 C 35.831 56.404,36.000 56.482,36.000 56.388 C 36.000 56.162,35.538 55.768,34.883 55.437 C 34.328 55.155,34.167 55.112,34.167 55.246 M30.116 56.899 C 30.048 57.072,30.031 57.254,30.079 57.302 C 30.231 57.454,30.365 57.205,30.301 56.888 C 30.243 56.598,30.234 56.599,30.116 56.899 M36.333 58.236 C 36.333 58.641,36.285 59.110,36.225 59.278 C 36.143 59.510,36.166 59.539,36.319 59.398 C 36.592 59.147,36.766 57.500,36.519 57.500 C 36.411 57.500,36.333 57.807,36.333 58.236 M29.768 58.097 C 29.705 58.260,29.743 58.336,29.864 58.295 C 30.114 58.212,30.251 57.833,30.032 57.833 C 29.942 57.833,29.823 57.952,29.768 58.097 M29.667 59.018 C 29.667 59.596,29.801 59.600,29.912 59.026 C 29.949 58.832,29.909 58.630,29.823 58.577 C 29.737 58.524,29.667 58.722,29.667 59.018 M38.417 59.857 C 38.142 60.040,37.710 60.267,37.458 60.361 C 37.015 60.527,36.826 60.833,37.167 60.833 C 37.258 60.833,37.333 60.754,37.333 60.657 C 37.333 60.560,37.397 60.520,37.476 60.568 C 37.616 60.655,39.167 59.755,39.167 59.587 C 39.167 59.431,38.926 59.518,38.417 59.857 M29.760 60.043 C 29.937 60.617,30.349 61.374,30.436 61.286 C 30.578 61.145,30.092 59.840,29.866 59.754 C 29.704 59.692,29.676 59.769,29.760 60.043 M35.333 60.750 C 34.903 61.208,34.969 61.464,35.446 61.187 C 35.613 61.090,35.685 61.008,35.605 61.005 C 35.525 61.002,35.554 60.886,35.670 60.746 C 36.032 60.309,35.744 60.313,35.333 60.750 M30.738 61.754 C 31.080 62.013,31.272 61.972,31.090 61.678 C 31.030 61.580,30.854 61.502,30.698 61.505 C 30.451 61.510,30.456 61.540,30.738 61.754 M35.044 63.620 C 35.297 63.658,35.672 63.657,35.877 63.617 C 36.082 63.578,35.875 63.546,35.417 63.548 C 34.958 63.549,34.791 63.581,35.044 63.620 " stroke="none" fill="#cfcfcf" fill-rule="evenodd"></path><path id="path3" d="M32.833 25.067 C 31.968 25.711,30.860 26.835,31.092 26.831 C 31.281 26.828,31.804 26.506,31.627 26.503 C 31.559 26.501,31.628 26.354,31.781 26.175 C 31.934 25.997,32.133 25.896,32.222 25.951 C 32.312 26.007,32.332 25.966,32.266 25.859 C 32.201 25.753,32.217 25.667,32.303 25.667 C 32.388 25.667,32.745 25.404,33.095 25.083 C 33.894 24.352,33.801 24.346,32.833 25.067 M47.417 34.422 C 47.142 34.647,46.997 34.832,47.096 34.833 C 47.195 34.833,47.451 34.646,47.667 34.417 C 48.160 33.891,48.062 33.893,47.417 34.422 M48.167 35.986 C 48.029 36.146,47.729 36.492,47.500 36.753 C 47.164 37.137,47.237 37.106,47.875 36.595 C 48.310 36.245,48.667 35.894,48.667 35.813 C 48.667 35.587,48.443 35.664,48.167 35.986 M44.530 37.021 C 44.135 37.394,43.843 37.732,43.883 37.772 C 43.923 37.812,44.322 37.507,44.769 37.095 C 45.217 36.684,45.508 36.345,45.417 36.344 C 45.325 36.343,44.926 36.647,44.530 37.021 M42.554 38.875 C 41.938 39.560,41.940 39.759,42.558 39.176 C 42.893 38.860,43.167 38.578,43.167 38.551 C 43.167 38.383,42.843 38.554,42.554 38.875 M44.829 39.625 L 43.750 40.750 44.875 39.671 C 45.920 38.670,46.076 38.500,45.954 38.500 C 45.928 38.500,45.422 39.006,44.829 39.625 M50.875 39.083 C 50.877 39.450,50.911 39.580,50.951 39.373 C 50.991 39.166,50.990 38.866,50.948 38.706 C 50.906 38.547,50.874 38.717,50.875 39.083 M115.375 40.750 C 115.377 41.117,115.411 41.247,115.451 41.040 C 115.491 40.832,115.490 40.532,115.448 40.373 C 115.406 40.214,115.374 40.383,115.375 40.750 M145.724 40.792 C 145.818 40.943,146.791 40.931,146.945 40.777 C 147.006 40.716,146.739 40.667,146.351 40.667 C 145.964 40.667,145.682 40.723,145.724 40.792 M69.167 41.194 C 69.167 41.271,69.387 41.333,69.657 41.333 C 69.926 41.333,70.186 41.271,70.233 41.194 C 70.280 41.118,70.059 41.056,69.743 41.056 C 69.426 41.056,69.167 41.118,69.167 41.194 M41.670 42.497 C 41.267 42.861,40.971 43.193,41.012 43.234 C 41.053 43.275,41.437 42.976,41.867 42.571 C 42.837 41.654,42.671 41.591,41.670 42.497 M32.833 43.417 C 32.947 43.554,33.116 43.667,33.207 43.667 C 33.300 43.667,33.282 43.556,33.167 43.417 C 33.053 43.279,32.884 43.167,32.793 43.167 C 32.700 43.167,32.718 43.277,32.833 43.417 M148.944 43.278 C 148.772 43.450,148.814 44.301,149.000 44.417 C 149.101 44.479,149.167 44.252,149.167 43.843 C 149.167 43.152,149.139 43.083,148.944 43.278 M36.858 44.086 C 36.642 44.314,36.535 44.500,36.620 44.500 C 36.705 44.500,36.951 44.313,37.167 44.083 C 37.382 43.854,37.489 43.668,37.404 43.670 C 37.319 43.671,37.073 43.859,36.858 44.086 M39.475 44.535 L 39.094 45.071 39.540 44.744 C 40.009 44.399,40.260 44.000,40.006 44.000 C 39.924 44.000,39.685 44.241,39.475 44.535 M34.167 44.917 C 34.985 45.751,35.392 45.851,35.685 45.292 C 35.881 44.917,35.881 44.917,35.520 45.238 C 35.158 45.560,35.156 45.559,34.447 44.863 C 33.489 43.923,33.238 43.971,34.167 44.917 M38.482 45.375 C 38.286 45.748,38.287 45.748,38.642 45.433 C 39.040 45.080,39.076 45.000,38.839 45.000 C 38.751 45.000,38.590 45.169,38.482 45.375 M130.218 45.406 C 130.108 45.531,129.921 45.668,129.801 45.710 C 129.681 45.753,129.624 45.832,129.673 45.886 C 129.723 45.941,129.985 45.804,130.257 45.582 C 130.528 45.360,130.675 45.179,130.583 45.179 C 130.492 45.179,130.327 45.281,130.218 45.406 M96.427 47.002 C 95.508 47.931,95.502 48.114,96.417 47.310 C 96.916 46.872,97.464 46.162,97.298 46.169 C 97.271 46.170,96.880 46.545,96.427 47.002 M36.730 46.865 C 36.663 46.974,36.697 47.094,36.807 47.130 C 36.916 47.167,37.117 47.308,37.253 47.443 C 37.389 47.579,37.501 47.629,37.503 47.554 C 37.504 47.478,37.578 47.529,37.667 47.667 C 37.770 47.826,37.829 47.843,37.831 47.713 C 37.832 47.600,37.606 47.391,37.328 47.247 C 37.050 47.103,36.867 46.914,36.921 46.826 C 36.975 46.738,36.982 46.667,36.936 46.667 C 36.891 46.667,36.798 46.756,36.730 46.865 M100.242 48.708 L 99.583 49.417 100.292 48.758 C 100.950 48.145,101.077 48.000,100.950 48.000 C 100.923 48.000,100.605 48.319,100.242 48.708 M39.167 48.343 C 39.167 48.440,39.242 48.473,39.333 48.417 C 39.425 48.360,39.500 48.393,39.500 48.490 C 39.500 48.587,39.584 48.667,39.687 48.667 C 39.816 48.667,39.810 48.589,39.667 48.417 C 39.426 48.126,39.167 48.088,39.167 48.343 M94.750 48.500 C 94.583 48.684,94.484 48.873,94.530 48.919 C 94.576 48.965,94.750 48.851,94.917 48.667 C 95.084 48.482,95.183 48.294,95.137 48.248 C 95.091 48.202,94.917 48.316,94.750 48.500 M46.000 48.667 C 45.862 48.756,45.825 48.831,45.917 48.833 C 46.008 48.836,45.982 48.903,45.857 48.982 C 45.727 49.064,45.699 49.167,45.791 49.224 C 45.879 49.278,46.036 49.138,46.139 48.911 C 46.350 48.449,46.346 48.443,46.000 48.667 M88.282 50.134 C 87.760 50.662,87.336 51.241,87.338 51.421 C 87.343 51.746,87.346 51.746,87.526 51.417 C 87.627 51.233,88.089 50.691,88.553 50.212 C 89.017 49.733,89.360 49.304,89.314 49.258 C 89.268 49.213,88.804 49.607,88.282 50.134 M92.667 50.177 C 92.667 50.274,92.580 50.299,92.474 50.234 C 92.365 50.167,92.327 50.188,92.385 50.282 C 92.442 50.374,92.304 50.549,92.078 50.670 C 91.852 50.791,91.667 50.956,91.667 51.037 C 91.667 51.117,91.929 50.983,92.250 50.739 C 92.763 50.348,92.998 50.000,92.750 50.000 C 92.704 50.000,92.667 50.079,92.667 50.177 M108.042 52.583 C 108.044 52.950,108.078 53.080,108.118 52.873 C 108.158 52.666,108.156 52.366,108.115 52.206 C 108.073 52.047,108.040 52.217,108.042 52.583 M93.260 52.983 C 93.128 53.198,93.214 54.000,93.370 54.000 C 93.441 54.000,93.500 53.737,93.500 53.417 C 93.500 52.830,93.432 52.706,93.260 52.983 M86.145 53.708 C 86.398 54.031,86.758 54.090,86.915 53.835 C 86.974 53.740,86.907 53.713,86.757 53.771 C 86.613 53.826,86.365 53.768,86.206 53.644 C 85.944 53.438,85.938 53.444,86.145 53.708 M16.877 55.953 C 17.131 55.991,17.506 55.990,17.711 55.951 C 17.916 55.911,17.708 55.880,17.250 55.881 C 16.792 55.882,16.624 55.915,16.877 55.953 M31.094 56.018 C 31.138 56.088,31.041 56.220,30.880 56.311 C 30.718 56.401,30.629 56.518,30.681 56.570 C 30.734 56.623,30.941 56.491,31.141 56.277 C 31.412 55.989,31.443 55.889,31.260 55.889 C 31.125 55.889,31.050 55.947,31.094 56.018 M36.209 58.250 C 36.211 58.617,36.245 58.747,36.285 58.540 C 36.324 58.332,36.323 58.032,36.281 57.873 C 36.239 57.714,36.207 57.883,36.209 58.250 M30.951 61.578 C 31.115 61.804,31.319 61.992,31.404 61.995 C 31.489 61.998,31.382 61.813,31.167 61.583 C 30.667 61.051,30.565 61.049,30.951 61.578 " stroke="none" fill="#ececec" fill-rule="evenodd"></path><path id="path4" d="M37.211 23.453 C 37.464 23.491,37.839 23.490,38.044 23.451 C 38.249 23.411,38.042 23.380,37.583 23.381 C 37.125 23.382,36.957 23.415,37.211 23.453 M43.016 25.833 C 43.498 26.582,43.500 26.584,43.499 26.403 C 43.499 26.319,43.305 26.025,43.069 25.750 L 42.639 25.250 43.016 25.833 M44.379 27.182 C 44.541 27.276,44.635 27.416,44.589 27.491 C 44.480 27.666,44.971 28.084,45.116 27.940 C 45.249 27.807,44.510 26.998,44.263 27.005 C 44.164 27.008,44.216 27.087,44.379 27.182 M45.194 28.389 C 45.309 28.511,45.509 28.611,45.640 28.611 C 45.812 28.611,45.794 28.550,45.574 28.389 C 45.406 28.267,45.206 28.167,45.128 28.167 C 45.050 28.167,45.080 28.267,45.194 28.389 M46.025 29.492 C 46.097 29.707,46.325 29.745,46.346 29.546 C 46.353 29.479,46.268 29.395,46.158 29.358 C 46.048 29.322,45.988 29.382,46.025 29.492 M28.881 33.250 C 28.882 33.708,28.915 33.876,28.953 33.623 C 28.991 33.369,28.990 32.994,28.951 32.789 C 28.911 32.584,28.880 32.792,28.881 33.250 M46.375 35.343 C 46.077 35.622,45.833 35.899,45.833 35.958 C 45.833 36.017,46.114 35.807,46.456 35.491 C 46.799 35.175,47.112 34.898,47.151 34.875 C 47.190 34.852,47.153 34.834,47.069 34.834 C 46.985 34.835,46.673 35.063,46.375 35.343 M43.321 38.106 C 43.098 38.348,43.023 38.513,43.152 38.472 C 43.372 38.403,43.964 37.667,43.799 37.667 C 43.758 37.667,43.543 37.864,43.321 38.106 M46.282 38.089 C 46.025 38.315,45.881 38.500,45.962 38.500 C 46.042 38.500,46.285 38.313,46.500 38.083 C 46.998 37.553,46.888 37.556,46.282 38.089 M268.458 39.118 C 268.665 39.157,269.002 39.157,269.208 39.118 C 269.415 39.078,269.246 39.045,268.833 39.045 C 268.421 39.045,268.252 39.078,268.458 39.118 M276.716 39.124 C 277.431 39.155,278.556 39.155,279.216 39.124 C 279.876 39.092,279.292 39.066,277.917 39.067 C 276.542 39.067,276.001 39.093,276.716 39.124 M282.711 39.120 C 282.964 39.158,283.339 39.157,283.544 39.117 C 283.749 39.078,283.542 39.046,283.083 39.048 C 282.625 39.049,282.457 39.081,282.711 39.120 M291.049 39.124 C 291.764 39.155,292.889 39.155,293.549 39.124 C 294.210 39.092,293.625 39.066,292.250 39.067 C 290.875 39.067,290.335 39.093,291.049 39.124 M40.833 40.446 L 40.417 40.872 40.875 40.583 C 41.127 40.425,41.333 40.229,41.333 40.147 C 41.333 39.946,41.308 39.961,40.833 40.446 M323.167 41.000 C 323.167 41.092,323.359 41.167,323.593 41.167 C 323.835 41.167,323.975 41.095,323.917 41.000 C 323.860 40.908,323.668 40.833,323.490 40.833 C 323.312 40.833,323.167 40.908,323.167 41.000 M379.500 41.167 C 379.500 41.258,379.650 41.333,379.833 41.333 C 380.017 41.333,380.167 41.258,380.167 41.167 C 380.167 41.075,380.017 41.000,379.833 41.000 C 379.650 41.000,379.500 41.075,379.500 41.167 M97.435 41.363 C 97.542 41.536,98.287 41.543,98.392 41.373 C 98.435 41.303,98.219 41.241,97.911 41.236 C 97.603 41.231,97.389 41.288,97.435 41.363 M38.167 42.916 C 37.952 43.145,37.808 43.360,37.847 43.394 C 37.885 43.428,38.091 43.241,38.304 42.978 C 38.782 42.390,38.697 42.352,38.167 42.916 M72.056 43.428 C 72.001 43.572,72.041 43.774,72.145 43.878 C 72.285 44.018,72.333 43.952,72.333 43.617 C 72.333 43.115,72.209 43.030,72.056 43.428 M95.618 44.202 C 95.254 44.379,95.033 44.586,95.097 44.689 C 95.172 44.811,95.254 44.796,95.348 44.643 C 95.425 44.518,95.547 44.415,95.619 44.412 C 95.832 44.405,96.421 44.031,96.332 43.959 C 96.287 43.923,95.966 44.032,95.618 44.202 M36.031 44.840 C 35.506 45.329,35.583 45.405,36.167 44.974 C 36.442 44.770,36.667 44.581,36.667 44.552 C 36.667 44.399,36.352 44.541,36.031 44.840 M39.074 44.740 C 38.756 44.976,38.757 44.980,39.097 44.957 C 39.288 44.944,39.444 44.836,39.444 44.717 C 39.444 44.451,39.465 44.450,39.074 44.740 M97.811 45.506 C 97.569 45.778,97.426 46.000,97.493 46.000 C 97.622 46.000,98.035 45.558,98.234 45.208 C 98.423 44.877,98.284 44.975,97.811 45.506 M130.942 45.578 C 130.887 45.720,130.756 45.817,130.650 45.793 C 130.545 45.769,130.436 45.846,130.408 45.962 C 130.381 46.079,130.397 46.098,130.443 46.003 C 130.490 45.909,130.589 45.868,130.662 45.914 C 130.818 46.010,131.255 45.533,131.128 45.405 C 131.080 45.358,130.997 45.435,130.942 45.578 M129.500 45.980 C 129.500 46.082,129.418 46.167,129.318 46.167 C 129.218 46.167,128.945 46.317,128.712 46.500 C 128.479 46.683,128.370 46.833,128.470 46.833 C 128.747 46.833,129.500 46.462,129.500 46.325 C 129.500 46.258,129.623 46.214,129.774 46.227 C 129.924 46.240,130.069 46.154,130.095 46.038 C 130.120 45.921,130.102 45.905,130.055 46.003 C 129.994 46.126,129.896 46.121,129.734 45.987 C 129.565 45.847,129.500 45.845,129.500 45.980 M36.568 46.859 C 36.445 47.057,36.928 47.509,37.240 47.489 C 37.337 47.483,37.245 47.395,37.035 47.294 C 36.823 47.192,36.691 47.011,36.738 46.888 C 36.842 46.616,36.730 46.597,36.568 46.859 M91.387 47.334 C 91.188 47.414,90.855 47.710,90.648 47.990 C 90.440 48.271,90.184 48.500,90.078 48.500 C 89.972 48.500,89.742 48.669,89.567 48.875 C 89.250 49.250,89.250 49.250,89.596 48.958 C 89.787 48.798,90.022 48.667,90.118 48.667 C 90.215 48.667,90.494 48.404,90.739 48.083 C 90.983 47.762,91.288 47.500,91.415 47.500 C 91.543 47.500,91.693 47.425,91.750 47.333 C 91.869 47.141,91.867 47.141,91.387 47.334 M40.357 48.819 C 40.573 48.994,40.782 49.106,40.821 49.067 C 40.907 48.982,40.310 48.513,40.107 48.505 C 40.028 48.502,40.140 48.644,40.357 48.819 M45.429 49.643 C 45.052 50.372,45.111 50.512,45.524 49.868 C 45.717 49.566,45.834 49.278,45.783 49.228 C 45.733 49.177,45.573 49.364,45.429 49.643 M165.083 51.333 C 165.027 51.425,165.135 51.500,165.323 51.500 C 165.512 51.500,165.667 51.425,165.667 51.333 C 165.667 51.242,165.559 51.167,165.427 51.167 C 165.294 51.167,165.140 51.242,165.083 51.333 M108.110 52.614 C 108.157 53.838,108.333 53.975,108.333 52.788 C 108.333 52.274,108.275 51.817,108.204 51.773 C 108.133 51.729,108.091 52.108,108.110 52.614 M353.205 52.333 C 353.205 52.654,353.240 52.785,353.282 52.625 C 353.323 52.465,353.323 52.202,353.282 52.042 C 353.240 51.881,353.205 52.012,353.205 52.333 M86.284 52.600 C 86.119 52.820,86.045 53.000,86.119 53.000 C 86.264 53.000,86.724 52.334,86.637 52.250 C 86.607 52.222,86.449 52.379,86.284 52.600 M326.500 52.573 C 326.500 52.808,326.575 53.000,326.667 53.000 C 326.758 53.000,326.833 52.854,326.833 52.677 C 326.833 52.499,326.758 52.307,326.667 52.250 C 326.572 52.192,326.500 52.332,326.500 52.573 M341.167 52.935 C 341.167 53.276,341.217 53.506,341.278 53.445 C 341.458 53.265,341.490 52.513,341.322 52.409 C 341.236 52.357,341.167 52.593,341.167 52.935 M49.833 52.631 C 49.833 52.703,49.983 52.762,50.167 52.762 C 50.350 52.762,50.500 52.703,50.500 52.631 C 50.500 52.559,50.350 52.500,50.167 52.500 C 49.983 52.500,49.833 52.559,49.833 52.631 M61.208 55.448 C 61.369 55.490,61.631 55.490,61.792 55.448 C 61.952 55.406,61.821 55.372,61.500 55.372 C 61.179 55.372,61.048 55.406,61.208 55.448 M86.127 55.951 C 86.334 55.991,86.634 55.990,86.794 55.948 C 86.953 55.906,86.783 55.874,86.417 55.875 C 86.050 55.877,85.920 55.911,86.127 55.951 " stroke="none" fill="#f4f4f4" fill-rule="evenodd"></path></g></svg>